<?xml version="1.0" encoding="UTF-8" standalone="no"?><svg xmlns="http://www.w3.org/2000/svg" xmlns:xlink="http://www.w3.org/1999/xlink" clip-rule="evenodd" stroke-miterlimit="4.00" viewBox="0 0 1024 768"><desc>SVG generated by Keynote</desc><defs></defs><g transform="matrix(1.00, 0.00, -0.00, -1.00, 0.0, 768.0)"><path d="M 0.0 768.0 L 1024.0 768.0 L 1024.0 0.0 L 0.0 0.0 Z M 0.0 768.0 " fill="#212121"></path><text xml:space="preserve" font-family="InputSans-Regular" font-size="55.0" fill="#34A4DA" transform="matrix(1.00, 0.00, -0.00, -1.00, 242.0, 359.0)">j</text><text xml:space="preserve" font-family="InputSans-Regular" font-size="55.0" fill="#34A4DA" transform="matrix(1.00, 0.00, -0.00, -1.00, 267.0, 359.0)">m</text><text xml:space="preserve" font-family="InputSans-Regular" font-size="55.0" fill="#34A4DA" transform="matrix(1.00, 0.00, -0.00, -1.00, 317.0, 359.0)">o</text><text xml:space="preserve" font-family="InputSans-Regular" font-size="55.0" fill="#34A4DA" transform="matrix(1.00, 0.00, -0.00, -1.00, 352.0, 359.0)">r</text><text xml:space="preserve" font-family="InputSans-Regular" font-size="55.0" fill="#34A4DA" transform="matrix(1.00, 0.00, -0.00, -1.00, 382.1, 359.0)">o</text><text xml:space="preserve" font-family="InputSans-Regular" font-size="55.0" fill="#34A4DA" transform="matrix(1.00, 0.00, -0.00, -1.00, 417.1, 359.0)">@</text><text xml:space="preserve" font-family="InputSans-Regular" font-size="55.0" fill="#34A4DA" transform="matrix(1.00, 0.00, -0.00, -1.00, 467.1, 359.0)">s</text><text xml:space="preserve" font-family="InputSans-Regular" font-size="55.0" fill="#34A4DA" transform="matrix(1.00, 0.00, -0.00, -1.00, 502.1, 359.0)">m</text><text xml:space="preserve" font-family="InputSans-Regular" font-size="55.0" fill="#34A4DA" transform="matrix(1.00, 0.00, -0.00, -1.00, 552.2, 359.0)">i</text><text xml:space="preserve" font-family="InputSans-Regular" font-size="55.0" fill="#34A4DA" transform="matrix(1.00, 0.00, -0.00, -1.00, 577.1, 359.0)">t</text><text xml:space="preserve" font-family="InputSans-Regular" font-size="55.0" fill="#34A4DA" transform="matrix(1.00, 0.00, -0.00, -1.00, 607.2, 359.0)">h</text><text xml:space="preserve" font-family="InputSans-Regular" font-size="55.0" fill="#34A4DA" transform="matrix(1.00, 0.00, -0.00, -1.00, 642.2, 359.0)">.</text><text xml:space="preserve" font-family="InputSans-Regular" font-size="55.0" fill="#34A4DA" transform="matrix(1.00, 0.00, -0.00, -1.00, 677.2, 359.0)">e</text><text xml:space="preserve" font-family="InputSans-Regular" font-size="55.0" fill="#34A4DA" transform="matrix(1.00, 0.00, -0.00, -1.00, 712.2, 359.0)">d</text><text xml:space="preserve" font-family="InputSans-Regular" font-size="55.0" fill="#34A4DA" transform="matrix(1.00, 0.00, -0.00, -1.00, 747.3, 359.0)">u</text><text xml:space="preserve" font-family="InputSans-Regular" font-size="39.0" fill="#34A4DA" transform="matrix(1.00, 0.00, -0.00, -1.00, 40.0, 66.0)">h</text><text xml:space="preserve" font-family="InputSans-Regular" font-size="39.0" fill="#34A4DA" transform="matrix(1.00, 0.00, -0.00, -1.00, 64.8, 66.0)">t</text><text xml:space="preserve" font-family="InputSans-Regular" font-size="39.0" fill="#34A4DA" transform="matrix(1.00, 0.00, -0.00, -1.00, 86.1, 66.0)">t</text><text xml:space="preserve" font-family="InputSans-Regular" font-size="39.0" fill="#34A4DA" transform="matrix(1.00, 0.00, -0.00, -1.00, 107.4, 66.0)">p</text><text xml:space="preserve" font-family="InputSans-Regular" font-size="39.0" fill="#34A4DA" transform="matrix(1.00, 0.00, -0.00, -1.00, 132.2, 66.0)">s</text><text xml:space="preserve" font-family="InputSans-Regular" font-size="39.0" fill="#34A4DA" transform="matrix(1.00, 0.00, -0.00, -1.00, 157.1, 66.0)">:</text><text xml:space="preserve" font-family="InputSans-Regular" font-size="39.0" fill="#34A4DA" transform="matrix(1.00, 0.00, -0.00, -1.00, 181.9, 66.0)">/</text><text xml:space="preserve" font-family="InputSans-Regular" font-size="39.0" fill="#34A4DA" transform="matrix(1.00, 0.00, -0.00, -1.00, 206.7, 66.0)">/</text><text xml:space="preserve" font-family="InputSans-Regular" font-size="39.0" fill="#34A4DA" transform="matrix(1.00, 0.00, -0.00, -1.00, 231.6, 66.0)">k</text><text xml:space="preserve" font-family="InputSans-Regular" font-size="39.0" fill="#34A4DA" transform="matrix(1.00, 0.00, -0.00, -1.00, 252.9, 66.0)">e</text><text xml:space="preserve" font-family="InputSans-Regular" font-size="39.0" fill="#34A4DA" transform="matrix(1.00, 0.00, -0.00, -1.00, 277.7, 66.0)">y</text><text xml:space="preserve" font-family="InputSans-Regular" font-size="39.0" fill="#34A4DA" transform="matrix(1.00, 0.00, -0.00, -1.00, 299.0, 66.0)">n</text><text xml:space="preserve" font-family="InputSans-Regular" font-size="39.0" fill="#34A4DA" transform="matrix(1.00, 0.00, -0.00, -1.00, 323.8, 66.0)">o</text><text xml:space="preserve" font-family="InputSans-Regular" font-size="39.0" fill="#34A4DA" transform="matrix(1.00, 0.00, -0.00, -1.00, 348.7, 66.0)">t</text><text xml:space="preserve" font-family="InputSans-Regular" font-size="39.0" fill="#34A4DA" transform="matrix(1.00, 0.00, -0.00, -1.00, 369.9, 66.0)">e</text><text xml:space="preserve" font-family="InputSans-Regular" font-size="39.0" fill="#34A4DA" transform="matrix(1.00, 0.00, -0.00, -1.00, 394.8, 66.0)">s</text><text xml:space="preserve" font-family="InputSans-Regular" font-size="39.0" fill="#34A4DA" transform="matrix(1.00, 0.00, -0.00, -1.00, 419.6, 66.0)">.</text><text xml:space="preserve" font-family="InputSans-Regular" font-size="39.0" fill="#34A4DA" transform="matrix(1.00, 0.00, -0.00, -1.00, 444.4, 66.0)">j</text><text xml:space="preserve" font-family="InputSans-Regular" font-size="39.0" fill="#34A4DA" transform="matrix(1.00, 0.00, -0.00, -1.00, 462.2, 66.0)">e</text><text xml:space="preserve" font-family="InputSans-Regular" font-size="39.0" fill="#34A4DA" transform="matrix(1.00, 0.00, -0.00, -1.00, 487.0, 66.0)">f</text><text xml:space="preserve" font-family="InputSans-Regular" font-size="39.0" fill="#34A4DA" transform="matrix(1.00, 0.00, -0.00, -1.00, 508.3, 66.0)">f</text><text xml:space="preserve" font-family="InputSans-Regular" font-size="39.0" fill="#34A4DA" transform="matrix(1.00, 0.00, -0.00, -1.00, 529.6, 66.0)">r</text><text xml:space="preserve" font-family="InputSans-Regular" font-size="39.0" fill="#34A4DA" transform="matrix(1.00, 0.00, -0.00, -1.00, 550.8, 66.0)">e</text><text xml:space="preserve" font-family="InputSans-Regular" font-size="39.0" fill="#34A4DA" transform="matrix(1.00, 0.00, -0.00, -1.00, 575.7, 66.0)">y</text><text xml:space="preserve" font-family="InputSans-Regular" font-size="39.0" fill="#34A4DA" transform="matrix(1.00, 0.00, -0.00, -1.00, 597.0, 66.0)">m</text><text xml:space="preserve" font-family="InputSans-Regular" font-size="39.0" fill="#34A4DA" transform="matrix(1.00, 0.00, -0.00, -1.00, 632.4, 66.0)">o</text><text xml:space="preserve" font-family="InputSans-Regular" font-size="39.0" fill="#34A4DA" transform="matrix(1.00, 0.00, -0.00, -1.00, 657.3, 66.0)">r</text><text xml:space="preserve" font-family="InputSans-Regular" font-size="39.0" fill="#34A4DA" transform="matrix(1.00, 0.00, -0.00, -1.00, 678.6, 66.0)">o</text><text xml:space="preserve" font-family="InputSans-Regular" font-size="39.0" fill="#34A4DA" transform="matrix(1.00, 0.00, -0.00, -1.00, 703.4, 66.0)">.</text><text xml:space="preserve" font-family="InputSans-Regular" font-size="39.0" fill="#34A4DA" transform="matrix(1.00, 0.00, -0.00, -1.00, 728.2, 66.0)">c</text><text xml:space="preserve" font-family="InputSans-Regular" font-size="39.0" fill="#34A4DA" transform="matrix(1.00, 0.00, -0.00, -1.00, 753.1, 66.0)">o</text><text xml:space="preserve" font-family="InputSans-Regular" font-size="39.0" fill="#34A4DA" transform="matrix(1.00, 0.00, -0.00, -1.00, 777.9, 66.0)">m</text><text xml:space="preserve" font-family="InputSans-Regular" font-size="39.0" fill="#34A4DA" transform="matrix(1.00, 0.00, -0.00, -1.00, 813.4, 66.0)">/</text><text xml:space="preserve" font-family="InputSans-Regular" font-size="39.0" fill="#34A4DA" transform="matrix(1.00, 0.00, -0.00, -1.00, 838.2, 66.0)">d</text><text xml:space="preserve" font-family="InputSans-Regular" font-size="39.0" fill="#34A4DA" transform="matrix(1.00, 0.00, -0.00, -1.00, 863.0, 66.0)">h</text><text xml:space="preserve" font-family="InputSans-Regular" font-size="39.0" fill="#34A4DA" transform="matrix(1.00, 0.00, -0.00, -1.00, 887.9, 66.0)">-</text><text xml:space="preserve" font-family="InputSans-Regular" font-size="39.0" fill="#34A4DA" transform="matrix(1.00, 0.00, -0.00, -1.00, 919.8, 66.0)">d</text><text xml:space="preserve" font-family="InputSans-Regular" font-size="39.0" fill="#34A4DA" transform="matrix(1.00, 0.00, -0.00, -1.00, 944.6, 66.0)">p</text><g><clipPath id="clip-49"><path d="M 39.3 59.2 L 969.2 59.2 L 969.2 63.8 L 39.3 63.8 Z M 39.3 59.2 "></path></clipPath><g clip-path="url(#clip-49)"><path d="M 4.0 54.1 L 932.9 54.1 " fill="none" stroke="#34A4DA" stroke-width="2.60" stroke-miterlimit="0.00" transform="matrix(1.00, 0.00, 0.00, -1.00, 36.3, 115.5)"></path></g></g></g></svg>