<?xml version="1.0" encoding="UTF-8" standalone="no"?><svg xmlns="http://www.w3.org/2000/svg" xmlns:xlink="http://www.w3.org/1999/xlink" clip-rule="evenodd" stroke-miterlimit="4.00" viewBox="0 0 1024 768"><desc>SVG generated by Keynote</desc><defs></defs><g transform="matrix(1.00, 0.00, -0.00, -1.00, 0.0, 768.0)"><path d="M 0.0 768.0 L 1024.0 768.0 L 1024.0 0.0 L 0.0 0.0 Z M 0.0 768.0 " fill="#212121"></path><text xml:space="preserve" font-family="InputSans-Regular" font-size="38.3" fill="#A6AAA9" transform="matrix(1.00, 0.00, -0.00, -1.00, 36.0, 695.0)">I</text><text xml:space="preserve" font-family="InputSans-Regular" font-size="38.3" fill="#A6AAA9" transform="matrix(1.00, 0.00, -0.00, -1.00, 60.4, 695.0)"> </text><text xml:space="preserve" font-family="InputSans-Regular" font-size="38.3" fill="#A6AAA9" transform="matrix(1.00, 0.00, -0.00, -1.00, 81.3, 695.0)">R</text><text xml:space="preserve" font-family="InputSans-Regular" font-size="38.3" fill="#A6AAA9" transform="matrix(1.00, 0.00, -0.00, -1.00, 109.2, 695.0)">E</text><text xml:space="preserve" font-family="InputSans-Regular" font-size="38.3" fill="#A6AAA9" transform="matrix(1.00, 0.00, -0.00, -1.00, 133.7, 695.0)">A</text><text xml:space="preserve" font-family="InputSans-Regular" font-size="38.3" fill="#A6AAA9" transform="matrix(1.00, 0.00, -0.00, -1.00, 161.6, 695.0)">L</text><text xml:space="preserve" font-family="InputSans-Regular" font-size="38.3" fill="#A6AAA9" transform="matrix(1.00, 0.00, -0.00, -1.00, 182.5, 695.0)">L</text><text xml:space="preserve" font-family="InputSans-Regular" font-size="38.3" fill="#A6AAA9" transform="matrix(1.00, 0.00, -0.00, -1.00, 199.9, 695.0)">Y</text><text xml:space="preserve" font-family="InputSans-Regular" font-size="38.3" fill="#A6AAA9" transform="matrix(1.00, 0.00, -0.00, -1.00, 224.3, 695.0)"> </text><text xml:space="preserve" font-family="InputSans-Regular" font-size="38.3" fill="#A6AAA9" transform="matrix(1.00, 0.00, -0.00, -1.00, 245.3, 695.0)">C</text><text xml:space="preserve" font-family="InputSans-Regular" font-size="38.3" fill="#A6AAA9" transform="matrix(1.00, 0.00, -0.00, -1.00, 273.2, 695.0)">A</text><text xml:space="preserve" font-family="InputSans-Regular" font-size="38.3" fill="#A6AAA9" transform="matrix(1.00, 0.00, -0.00, -1.00, 301.1, 695.0)">R</text><text xml:space="preserve" font-family="InputSans-Regular" font-size="38.3" fill="#A6AAA9" transform="matrix(1.00, 0.00, -0.00, -1.00, 329.0, 695.0)">E</text><text xml:space="preserve" font-family="InputSans-Regular" font-size="38.3" fill="#A6AAA9" transform="matrix(1.00, 0.00, -0.00, -1.00, 353.4, 695.0)"> </text><text xml:space="preserve" font-family="InputSans-Regular" font-size="38.3" fill="#A6AAA9" transform="matrix(1.00, 0.00, -0.00, -1.00, 374.3, 695.0)">A</text><text xml:space="preserve" font-family="InputSans-Regular" font-size="38.3" fill="#A6AAA9" transform="matrix(1.00, 0.00, -0.00, -1.00, 402.2, 695.0)">B</text><text xml:space="preserve" font-family="InputSans-Regular" font-size="38.3" fill="#A6AAA9" transform="matrix(1.00, 0.00, -0.00, -1.00, 430.1, 695.0)">O</text><text xml:space="preserve" font-family="InputSans-Regular" font-size="38.3" fill="#A6AAA9" transform="matrix(1.00, 0.00, -0.00, -1.00, 458.0, 695.0)">U</text><text xml:space="preserve" font-family="InputSans-Regular" font-size="38.3" fill="#A6AAA9" transform="matrix(1.00, 0.00, -0.00, -1.00, 485.9, 695.0)">T</text><text xml:space="preserve" font-family="InputSans-Regular" font-size="38.3" fill="#A6AAA9" transform="matrix(1.00, 0.00, -0.00, -1.00, 510.3, 695.0)"> </text><text xml:space="preserve" font-family="InputSans-Regular" font-size="38.3" fill="#A6AAA9" transform="matrix(1.00, 0.00, -0.00, -1.00, 531.2, 695.0)">T</text><text xml:space="preserve" font-family="InputSans-Regular" font-size="38.3" fill="#A6AAA9" transform="matrix(1.00, 0.00, -0.00, -1.00, 555.7, 695.0)">H</text><text xml:space="preserve" font-family="InputSans-Regular" font-size="38.3" fill="#A6AAA9" transform="matrix(1.00, 0.00, -0.00, -1.00, 583.6, 695.0)">I</text><text xml:space="preserve" font-family="InputSans-Regular" font-size="38.3" fill="#A6AAA9" transform="matrix(1.00, 0.00, -0.00, -1.00, 608.0, 695.0)">S</text><text xml:space="preserve" font-family="InputSans-Regular" font-size="38.3" fill="#A6AAA9" transform="matrix(1.00, 0.00, -0.00, -1.00, 635.9, 695.0)"> </text><text xml:space="preserve" font-family="InputSans-Regular" font-size="38.3" fill="#A6AAA9" transform="matrix(1.00, 0.00, -0.00, -1.00, 656.8, 695.0)">N</text><text xml:space="preserve" font-family="InputSans-Regular" font-size="38.3" fill="#A6AAA9" transform="matrix(1.00, 0.00, -0.00, -1.00, 684.7, 695.0)">E</text><text xml:space="preserve" font-family="InputSans-Regular" font-size="38.3" fill="#A6AAA9" transform="matrix(1.00, 0.00, -0.00, -1.00, 709.1, 695.0)">X</text><text xml:space="preserve" font-family="InputSans-Regular" font-size="38.3" fill="#A6AAA9" transform="matrix(1.00, 0.00, -0.00, -1.00, 737.0, 695.0)">T</text><text xml:space="preserve" font-family="InputSans-Regular" font-size="38.3" fill="#A6AAA9" transform="matrix(1.00, 0.00, -0.00, -1.00, 761.4, 695.0)"> </text><text xml:space="preserve" font-family="InputSans-Regular" font-size="38.3" fill="#A6AAA9" transform="matrix(1.00, 0.00, -0.00, -1.00, 782.3, 695.0)">P</text><text xml:space="preserve" font-family="InputSans-Regular" font-size="38.3" fill="#A6AAA9" transform="matrix(1.00, 0.00, -0.00, -1.00, 806.8, 695.0)">O</text><text xml:space="preserve" font-family="InputSans-Regular" font-size="38.3" fill="#A6AAA9" transform="matrix(1.00, 0.00, -0.00, -1.00, 834.7, 695.0)">I</text><text xml:space="preserve" font-family="InputSans-Regular" font-size="38.3" fill="#A6AAA9" transform="matrix(1.00, 0.00, -0.00, -1.00, 859.1, 695.0)">N</text><text xml:space="preserve" font-family="InputSans-Regular" font-size="38.3" fill="#A6AAA9" transform="matrix(1.00, 0.00, -0.00, -1.00, 887.0, 695.0)">T</text><text xml:space="preserve" font-family="InputSans-Regular" font-size="38.3" fill="#A6AAA9" transform="matrix(1.00, 0.00, -0.00, -1.00, 911.4, 695.0)"> </text><text xml:space="preserve" font-family="InputSans-Regular" font-size="38.3" fill="#A6AAA9" transform="matrix(1.00, 0.00, -0.00, -1.00, 932.3, 695.0)">S</text><text xml:space="preserve" font-family="InputSans-Regular" font-size="38.3" fill="#A6AAA9" transform="matrix(1.00, 0.00, -0.00, -1.00, 960.2, 695.0)">O</text><text xml:space="preserve" font-family="InputSans-Regular" font-size="38.3" fill="#A6AAA9" transform="matrix(1.00, 0.00, -0.00, -1.00, 988.1, 695.0)"> </text><text xml:space="preserve" font-family="InputSans-Regular" font-size="38.3" fill="#A6AAA9" transform="matrix(1.00, 0.00, -0.00, -1.00, 36.0, 651.0)">I</text><text xml:space="preserve" font-family="InputSans-Regular" font-size="38.3" fill="#A6AAA9" transform="matrix(1.00, 0.00, -0.00, -1.00, 60.4, 651.0)">’</text><text xml:space="preserve" font-family="InputSans-Regular" font-size="38.3" fill="#A6AAA9" transform="matrix(1.00, 0.00, -0.00, -1.00, 84.8, 651.0)">M</text><text xml:space="preserve" font-family="InputSans-Regular" font-size="38.3" fill="#A6AAA9" transform="matrix(1.00, 0.00, -0.00, -1.00, 116.2, 651.0)"> </text><text xml:space="preserve" font-family="InputSans-Regular" font-size="38.3" fill="#A6AAA9" transform="matrix(1.00, 0.00, -0.00, -1.00, 137.1, 651.0)">P</text><text xml:space="preserve" font-family="InputSans-Regular" font-size="38.3" fill="#A6AAA9" transform="matrix(1.00, 0.00, -0.00, -1.00, 161.6, 651.0)">U</text><text xml:space="preserve" font-family="InputSans-Regular" font-size="38.3" fill="#A6AAA9" transform="matrix(1.00, 0.00, -0.00, -1.00, 189.5, 651.0)">T</text><text xml:space="preserve" font-family="InputSans-Regular" font-size="38.3" fill="#A6AAA9" transform="matrix(1.00, 0.00, -0.00, -1.00, 213.9, 651.0)">T</text><text xml:space="preserve" font-family="InputSans-Regular" font-size="38.3" fill="#A6AAA9" transform="matrix(1.00, 0.00, -0.00, -1.00, 238.3, 651.0)">I</text><text xml:space="preserve" font-family="InputSans-Regular" font-size="38.3" fill="#A6AAA9" transform="matrix(1.00, 0.00, -0.00, -1.00, 262.7, 651.0)">N</text><text xml:space="preserve" font-family="InputSans-Regular" font-size="38.3" fill="#A6AAA9" transform="matrix(1.00, 0.00, -0.00, -1.00, 290.6, 651.0)">G</text><text xml:space="preserve" font-family="InputSans-Regular" font-size="38.3" fill="#A6AAA9" transform="matrix(1.00, 0.00, -0.00, -1.00, 318.5, 651.0)"> </text><text xml:space="preserve" font-family="InputSans-Regular" font-size="38.3" fill="#A6AAA9" transform="matrix(1.00, 0.00, -0.00, -1.00, 339.4, 651.0)">I</text><text xml:space="preserve" font-family="InputSans-Regular" font-size="38.3" fill="#A6AAA9" transform="matrix(1.00, 0.00, -0.00, -1.00, 363.8, 651.0)">T</text><text xml:space="preserve" font-family="InputSans-Regular" font-size="38.3" fill="#A6AAA9" transform="matrix(1.00, 0.00, -0.00, -1.00, 388.2, 651.0)"> </text><text xml:space="preserve" font-family="InputSans-Regular" font-size="38.3" fill="#A6AAA9" transform="matrix(1.00, 0.00, -0.00, -1.00, 409.2, 651.0)">I</text><text xml:space="preserve" font-family="InputSans-Regular" font-size="38.3" fill="#A6AAA9" transform="matrix(1.00, 0.00, -0.00, -1.00, 433.6, 651.0)">N</text><text xml:space="preserve" font-family="InputSans-Regular" font-size="38.3" fill="#A6AAA9" transform="matrix(1.00, 0.00, -0.00, -1.00, 461.5, 651.0)"> </text><text xml:space="preserve" font-family="InputSans-Regular" font-size="38.3" fill="#A6AAA9" transform="matrix(1.00, 0.00, -0.00, -1.00, 482.4, 651.0)">B</text><text xml:space="preserve" font-family="InputSans-Regular" font-size="38.3" fill="#A6AAA9" transform="matrix(1.00, 0.00, -0.00, -1.00, 510.3, 651.0)">I</text><text xml:space="preserve" font-family="InputSans-Regular" font-size="38.3" fill="#A6AAA9" transform="matrix(1.00, 0.00, -0.00, -1.00, 534.7, 651.0)">G</text><text xml:space="preserve" font-family="InputSans-Regular" font-size="38.3" fill="#A6AAA9" transform="matrix(1.00, 0.00, -0.00, -1.00, 562.6, 651.0)"> </text><text xml:space="preserve" font-family="InputSans-Regular" font-size="38.3" fill="#A6AAA9" transform="matrix(1.00, 0.00, -0.00, -1.00, 583.6, 651.0)">B</text><text xml:space="preserve" font-family="InputSans-Regular" font-size="38.3" fill="#A6AAA9" transform="matrix(1.00, 0.00, -0.00, -1.00, 611.5, 651.0)">L</text><text xml:space="preserve" font-family="InputSans-Regular" font-size="38.3" fill="#A6AAA9" transform="matrix(1.00, 0.00, -0.00, -1.00, 632.4, 651.0)">U</text><text xml:space="preserve" font-family="InputSans-Regular" font-size="38.3" fill="#A6AAA9" transform="matrix(1.00, 0.00, -0.00, -1.00, 660.3, 651.0)">E</text><text xml:space="preserve" font-family="InputSans-Regular" font-size="38.3" fill="#A6AAA9" transform="matrix(1.00, 0.00, -0.00, -1.00, 684.7, 651.0)"> </text><text xml:space="preserve" font-family="InputSans-Regular" font-size="38.3" fill="#A6AAA9" transform="matrix(1.00, 0.00, -0.00, -1.00, 705.6, 651.0)">L</text><text xml:space="preserve" font-family="InputSans-Regular" font-size="38.3" fill="#A6AAA9" transform="matrix(1.00, 0.00, -0.00, -1.00, 726.5, 651.0)">E</text><text xml:space="preserve" font-family="InputSans-Regular" font-size="38.3" fill="#A6AAA9" transform="matrix(1.00, 0.00, -0.00, -1.00, 751.0, 651.0)">T</text><text xml:space="preserve" font-family="InputSans-Regular" font-size="38.3" fill="#A6AAA9" transform="matrix(1.00, 0.00, -0.00, -1.00, 775.4, 651.0)">T</text><text xml:space="preserve" font-family="InputSans-Regular" font-size="38.3" fill="#A6AAA9" transform="matrix(1.00, 0.00, -0.00, -1.00, 799.8, 651.0)">E</text><text xml:space="preserve" font-family="InputSans-Regular" font-size="38.3" fill="#A6AAA9" transform="matrix(1.00, 0.00, -0.00, -1.00, 824.2, 651.0)">R</text><text xml:space="preserve" font-family="InputSans-Regular" font-size="38.3" fill="#A6AAA9" transform="matrix(1.00, 0.00, -0.00, -1.00, 852.1, 651.0)">S</text><text xml:space="preserve" font-family="InputSans-Regular" font-size="38.3" fill="#A6AAA9" transform="matrix(1.00, 0.00, -0.00, -1.00, 880.0, 651.0)">.</text></g></svg>