<?xml version="1.0" encoding="UTF-8" standalone="no"?><svg xmlns="http://www.w3.org/2000/svg" xmlns:xlink="http://www.w3.org/1999/xlink" clip-rule="evenodd" stroke-miterlimit="4.00" viewBox="0 0 1024 768"><desc>SVG generated by Keynote</desc><defs></defs><g transform="matrix(1.00, 0.00, -0.00, -1.00, 0.0, 768.0)"><path d="M 0.0 768.0 L 1024.0 768.0 L 1024.0 0.0 L 0.0 0.0 Z M 0.0 768.0 " fill="#212121"></path><path d="M 0.0 0.0 L 960.0 0.0 " fill="none" stroke="#A6AAA8" stroke-width="3.00" transform="matrix(1.00, 0.00, 0.00, -1.00, 32.0, 284.5)"></path><text xml:space="preserve" font-family="DINCondensed-Bold" font-weight="bold" font-size="101.1" fill="#34A4DA" transform="matrix(1.00, 0.00, -0.00, -1.00, 36.0, 186.0)">D</text><text xml:space="preserve" font-family="DINCondensed-Bold" font-weight="bold" font-size="101.1" fill="#34A4DA" transform="matrix(1.00, 0.00, -0.00, -1.00, 79.1, 186.0)">I</text><text xml:space="preserve" font-family="DINCondensed-Bold" font-weight="bold" font-size="101.1" fill="#34A4DA" transform="matrix(1.00, 0.00, -0.00, -1.00, 99.7, 186.0)">G</text><text xml:space="preserve" font-family="DINCondensed-Bold" font-weight="bold" font-size="101.1" fill="#34A4DA" transform="matrix(1.00, 0.00, -0.00, -1.00, 142.7, 186.0)">I</text><text xml:space="preserve" font-family="DINCondensed-Bold" font-weight="bold" font-size="101.1" fill="#34A4DA" transform="matrix(1.00, 0.00, -0.00, -1.00, 163.3, 186.0)">T</text><text xml:space="preserve" font-family="DINCondensed-Bold" font-weight="bold" font-size="101.1" fill="#34A4DA" transform="matrix(1.00, 0.00, -0.00, -1.00, 191.3, 186.0)">A</text><text xml:space="preserve" font-family="DINCondensed-Bold" font-weight="bold" font-size="101.1" fill="#34A4DA" transform="matrix(1.00, 0.00, -0.00, -1.00, 232.5, 186.0)">L</text><text xml:space="preserve" font-family="DINCondensed-Bold" font-weight="bold" font-size="101.1" fill="#34A4DA" transform="matrix(1.00, 0.00, -0.00, -1.00, 269.9, 186.0)"> </text><text xml:space="preserve" font-family="DINCondensed-Bold" font-weight="bold" font-size="101.1" fill="#34A4DA" transform="matrix(1.00, 0.00, -0.00, -1.00, 288.6, 186.0)">H</text><text xml:space="preserve" font-family="DINCondensed-Bold" font-weight="bold" font-size="101.1" fill="#34A4DA" transform="matrix(1.00, 0.00, -0.00, -1.00, 331.7, 186.0)">U</text><text xml:space="preserve" font-family="DINCondensed-Bold" font-weight="bold" font-size="101.1" fill="#34A4DA" transform="matrix(1.00, 0.00, -0.00, -1.00, 374.8, 186.0)">M</text><text xml:space="preserve" font-family="DINCondensed-Bold" font-weight="bold" font-size="101.1" fill="#34A4DA" transform="matrix(1.00, 0.00, -0.00, -1.00, 430.9, 186.0)">A</text><text xml:space="preserve" font-family="DINCondensed-Bold" font-weight="bold" font-size="101.1" fill="#34A4DA" transform="matrix(1.00, 0.00, -0.00, -1.00, 472.1, 186.0)">N</text><text xml:space="preserve" font-family="DINCondensed-Bold" font-weight="bold" font-size="101.1" fill="#34A4DA" transform="matrix(1.00, 0.00, -0.00, -1.00, 516.9, 186.0)">I</text><text xml:space="preserve" font-family="DINCondensed-Bold" font-weight="bold" font-size="101.1" fill="#34A4DA" transform="matrix(1.00, 0.00, -0.00, -1.00, 537.6, 186.0)">T</text><text xml:space="preserve" font-family="DINCondensed-Bold" font-weight="bold" font-size="101.1" fill="#34A4DA" transform="matrix(1.00, 0.00, -0.00, -1.00, 571.1, 186.0)">I</text><text xml:space="preserve" font-family="DINCondensed-Bold" font-weight="bold" font-size="101.1" fill="#34A4DA" transform="matrix(1.00, 0.00, -0.00, -1.00, 591.7, 186.0)">E</text><text xml:space="preserve" font-family="DINCondensed-Bold" font-weight="bold" font-size="101.1" fill="#34A4DA" transform="matrix(1.00, 0.00, -0.00, -1.00, 629.1, 186.0)">S</text><text xml:space="preserve" font-family="DINCondensed-Bold" font-weight="bold" font-size="101.1" fill="#34A4DA" transform="matrix(1.00, 0.00, -0.00, -1.00, 670.2, 186.0)"> </text><text xml:space="preserve" font-family="DINCondensed-Bold" font-weight="bold" font-size="101.1" fill="#34A4DA" transform="matrix(1.00, 0.00, -0.00, -1.00, 688.9, 186.0)">/</text><text xml:space="preserve" font-family="DINCondensed-Bold" font-weight="bold" font-size="101.1" fill="#34A4DA" transform="matrix(1.00, 0.00, -0.00, -1.00, 711.4, 186.0)"> </text><text xml:space="preserve" font-family="DINCondensed-Bold" font-weight="bold" font-size="101.1" fill="#34A4DA" transform="matrix(1.00, 0.00, -0.00, -1.00, 36.0, 85.0)">D</text><text xml:space="preserve" font-family="DINCondensed-Bold" font-weight="bold" font-size="101.1" fill="#34A4DA" transform="matrix(1.00, 0.00, -0.00, -1.00, 79.1, 85.0)">I</text><text xml:space="preserve" font-family="DINCondensed-Bold" font-weight="bold" font-size="101.1" fill="#34A4DA" transform="matrix(1.00, 0.00, -0.00, -1.00, 99.7, 85.0)">G</text><text xml:space="preserve" font-family="DINCondensed-Bold" font-weight="bold" font-size="101.1" fill="#34A4DA" transform="matrix(1.00, 0.00, -0.00, -1.00, 142.7, 85.0)">I</text><text xml:space="preserve" font-family="DINCondensed-Bold" font-weight="bold" font-size="101.1" fill="#34A4DA" transform="matrix(1.00, 0.00, -0.00, -1.00, 163.3, 85.0)">T</text><text xml:space="preserve" font-family="DINCondensed-Bold" font-weight="bold" font-size="101.1" fill="#34A4DA" transform="matrix(1.00, 0.00, -0.00, -1.00, 191.3, 85.0)">A</text><text xml:space="preserve" font-family="DINCondensed-Bold" font-weight="bold" font-size="101.1" fill="#34A4DA" transform="matrix(1.00, 0.00, -0.00, -1.00, 232.5, 85.0)">L</text><text xml:space="preserve" font-family="DINCondensed-Bold" font-weight="bold" font-size="101.1" fill="#34A4DA" transform="matrix(1.00, 0.00, -0.00, -1.00, 269.9, 85.0)"> </text><text xml:space="preserve" font-family="DINCondensed-Bold" font-weight="bold" font-size="101.1" fill="#34A4DA" transform="matrix(1.00, 0.00, -0.00, -1.00, 288.6, 85.0)">P</text><text xml:space="preserve" font-family="DINCondensed-Bold" font-weight="bold" font-size="101.1" fill="#34A4DA" transform="matrix(1.00, 0.00, -0.00, -1.00, 329.8, 85.0)">R</text><text xml:space="preserve" font-family="DINCondensed-Bold" font-weight="bold" font-size="101.1" fill="#34A4DA" transform="matrix(1.00, 0.00, -0.00, -1.00, 372.8, 85.0)">O</text><text xml:space="preserve" font-family="DINCondensed-Bold" font-weight="bold" font-size="101.1" fill="#34A4DA" transform="matrix(1.00, 0.00, -0.00, -1.00, 415.9, 85.0)">J</text><text xml:space="preserve" font-family="DINCondensed-Bold" font-weight="bold" font-size="101.1" fill="#34A4DA" transform="matrix(1.00, 0.00, -0.00, -1.00, 449.5, 85.0)">E</text><text xml:space="preserve" font-family="DINCondensed-Bold" font-weight="bold" font-size="101.1" fill="#34A4DA" transform="matrix(1.00, 0.00, -0.00, -1.00, 486.9, 85.0)">C</text><text xml:space="preserve" font-family="DINCondensed-Bold" font-weight="bold" font-size="101.1" fill="#34A4DA" transform="matrix(1.00, 0.00, -0.00, -1.00, 528.1, 85.0)">T</text><text xml:space="preserve" font-family="DINCondensed-Bold" font-weight="bold" font-size="101.1" fill="#34A4DA" transform="matrix(1.00, 0.00, -0.00, -1.00, 561.6, 85.0)">S</text><text xml:space="preserve" font-family="InputSans-Regular" font-size="43.7" fill="#A6AAA9" transform="matrix(1.00, 0.00, -0.00, -1.00, 36.0, 376.0)">J</text><text xml:space="preserve" font-family="InputSans-Regular" font-size="43.7" fill="#A6AAA9" transform="matrix(1.00, 0.00, -0.00, -1.00, 63.9, 376.0)">E</text><text xml:space="preserve" font-family="InputSans-Regular" font-size="43.7" fill="#A6AAA9" transform="matrix(1.00, 0.00, -0.00, -1.00, 91.7, 376.0)">F</text><text xml:space="preserve" font-family="InputSans-Regular" font-size="43.7" fill="#A6AAA9" transform="matrix(1.00, 0.00, -0.00, -1.00, 119.6, 376.0)">F</text><text xml:space="preserve" font-family="InputSans-Regular" font-size="43.7" fill="#A6AAA9" transform="matrix(1.00, 0.00, -0.00, -1.00, 147.4, 376.0)">R</text><text xml:space="preserve" font-family="InputSans-Regular" font-size="43.7" fill="#A6AAA9" transform="matrix(1.00, 0.00, -0.00, -1.00, 179.2, 376.0)">E</text><text xml:space="preserve" font-family="InputSans-Regular" font-size="43.7" fill="#A6AAA9" transform="matrix(1.00, 0.00, -0.00, -1.00, 207.1, 376.0)">Y</text><text xml:space="preserve" font-family="InputSans-Regular" font-size="43.7" fill="#A6AAA9" transform="matrix(1.00, 0.00, -0.00, -1.00, 234.9, 376.0)"> </text><text xml:space="preserve" font-family="InputSans-Regular" font-size="43.7" fill="#A6AAA9" transform="matrix(1.00, 0.00, -0.00, -1.00, 258.8, 376.0)">M</text><text xml:space="preserve" font-family="InputSans-Regular" font-size="43.7" fill="#A6AAA9" transform="matrix(1.00, 0.00, -0.00, -1.00, 294.6, 376.0)">O</text><text xml:space="preserve" font-family="InputSans-Regular" font-size="43.7" fill="#A6AAA9" transform="matrix(1.00, 0.00, -0.00, -1.00, 326.4, 376.0)">R</text><text xml:space="preserve" font-family="InputSans-Regular" font-size="43.7" fill="#A6AAA9" transform="matrix(1.00, 0.00, -0.00, -1.00, 358.3, 376.0)">O</text><text xml:space="preserve" font-family="InputSans-Regular" font-size="43.7" fill="#A6AAA9" transform="matrix(1.00, 0.00, -0.00, -1.00, 390.1, 376.0)"> </text><text xml:space="preserve" font-family="InputSans-Regular" font-size="43.7" fill="#A6AAA9" transform="matrix(1.00, 0.00, -0.00, -1.00, 36.0, 306.0)">F</text><text xml:space="preserve" font-family="InputSans-Regular" font-size="43.7" fill="#A6AAA9" transform="matrix(1.00, 0.00, -0.00, -1.00, 63.9, 306.0)">I</text><text xml:space="preserve" font-family="InputSans-Regular" font-size="43.7" fill="#A6AAA9" transform="matrix(1.00, 0.00, -0.00, -1.00, 91.7, 306.0)">V</text><text xml:space="preserve" font-family="InputSans-Regular" font-size="43.7" fill="#A6AAA9" transform="matrix(1.00, 0.00, -0.00, -1.00, 123.5, 306.0)">E</text><text xml:space="preserve" font-family="InputSans-Regular" font-size="43.7" fill="#A6AAA9" transform="matrix(1.00, 0.00, -0.00, -1.00, 151.4, 306.0)"> </text><text xml:space="preserve" font-family="InputSans-Regular" font-size="43.7" fill="#A6AAA9" transform="matrix(1.00, 0.00, -0.00, -1.00, 175.3, 306.0)">C</text><text xml:space="preserve" font-family="InputSans-Regular" font-size="43.7" fill="#A6AAA9" transform="matrix(1.00, 0.00, -0.00, -1.00, 207.1, 306.0)">O</text><text xml:space="preserve" font-family="InputSans-Regular" font-size="43.7" fill="#A6AAA9" transform="matrix(1.00, 0.00, -0.00, -1.00, 238.9, 306.0)">L</text><text xml:space="preserve" font-family="InputSans-Regular" font-size="43.7" fill="#A6AAA9" transform="matrix(1.00, 0.00, -0.00, -1.00, 262.8, 306.0)">L</text><text xml:space="preserve" font-family="InputSans-Regular" font-size="43.7" fill="#A6AAA9" transform="matrix(1.00, 0.00, -0.00, -1.00, 286.7, 306.0)">E</text><text xml:space="preserve" font-family="InputSans-Regular" font-size="43.7" fill="#A6AAA9" transform="matrix(1.00, 0.00, -0.00, -1.00, 314.5, 306.0)">G</text><text xml:space="preserve" font-family="InputSans-Regular" font-size="43.7" fill="#A6AAA9" transform="matrix(1.00, 0.00, -0.00, -1.00, 346.3, 306.0)">E</text><text xml:space="preserve" font-family="InputSans-Regular" font-size="43.7" fill="#A6AAA9" transform="matrix(1.00, 0.00, -0.00, -1.00, 374.2, 306.0)"> </text><text xml:space="preserve" font-family="InputSans-Regular" font-size="43.7" fill="#A6AAA9" transform="matrix(1.00, 0.00, -0.00, -1.00, 398.1, 306.0)">D</text><text xml:space="preserve" font-family="InputSans-Regular" font-size="43.7" fill="#A6AAA9" transform="matrix(1.00, 0.00, -0.00, -1.00, 429.9, 306.0)">I</text><text xml:space="preserve" font-family="InputSans-Regular" font-size="43.7" fill="#A6AAA9" transform="matrix(1.00, 0.00, -0.00, -1.00, 457.8, 306.0)">G</text><text xml:space="preserve" font-family="InputSans-Regular" font-size="43.7" fill="#A6AAA9" transform="matrix(1.00, 0.00, -0.00, -1.00, 489.6, 306.0)">I</text><text xml:space="preserve" font-family="InputSans-Regular" font-size="43.7" fill="#A6AAA9" transform="matrix(1.00, 0.00, -0.00, -1.00, 517.4, 306.0)">T</text><text xml:space="preserve" font-family="InputSans-Regular" font-size="43.7" fill="#A6AAA9" transform="matrix(1.00, 0.00, -0.00, -1.00, 543.3, 306.0)">A</text><text xml:space="preserve" font-family="InputSans-Regular" font-size="43.7" fill="#A6AAA9" transform="matrix(1.00, 0.00, -0.00, -1.00, 575.1, 306.0)">L</text><text xml:space="preserve" font-family="InputSans-Regular" font-size="43.7" fill="#A6AAA9" transform="matrix(1.00, 0.00, -0.00, -1.00, 599.0, 306.0)"> </text><text xml:space="preserve" font-family="InputSans-Regular" font-size="43.7" fill="#A6AAA9" transform="matrix(1.00, 0.00, -0.00, -1.00, 622.9, 306.0)">H</text><text xml:space="preserve" font-family="InputSans-Regular" font-size="43.7" fill="#A6AAA9" transform="matrix(1.00, 0.00, -0.00, -1.00, 654.7, 306.0)">U</text><text xml:space="preserve" font-family="InputSans-Regular" font-size="43.7" fill="#A6AAA9" transform="matrix(1.00, 0.00, -0.00, -1.00, 686.5, 306.0)">M</text><text xml:space="preserve" font-family="InputSans-Regular" font-size="43.7" fill="#A6AAA9" transform="matrix(1.00, 0.00, -0.00, -1.00, 722.3, 306.0)">A</text><text xml:space="preserve" font-family="InputSans-Regular" font-size="43.7" fill="#A6AAA9" transform="matrix(1.00, 0.00, -0.00, -1.00, 754.1, 306.0)">N</text><text xml:space="preserve" font-family="InputSans-Regular" font-size="43.7" fill="#A6AAA9" transform="matrix(1.00, 0.00, -0.00, -1.00, 786.0, 306.0)">I</text><text xml:space="preserve" font-family="InputSans-Regular" font-size="43.7" fill="#A6AAA9" transform="matrix(1.00, 0.00, -0.00, -1.00, 813.8, 306.0)">T</text><text xml:space="preserve" font-family="InputSans-Regular" font-size="43.7" fill="#A6AAA9" transform="matrix(1.00, 0.00, -0.00, -1.00, 841.7, 306.0)">I</text><text xml:space="preserve" font-family="InputSans-Regular" font-size="43.7" fill="#A6AAA9" transform="matrix(1.00, 0.00, -0.00, -1.00, 869.5, 306.0)">E</text><text xml:space="preserve" font-family="InputSans-Regular" font-size="43.7" fill="#A6AAA9" transform="matrix(1.00, 0.00, -0.00, -1.00, 897.4, 306.0)">S</text></g></svg>