<?xml version="1.0" encoding="UTF-8" standalone="no"?><svg xmlns="http://www.w3.org/2000/svg" xmlns:xlink="http://www.w3.org/1999/xlink" clip-rule="evenodd" stroke-miterlimit="4.00" viewBox="0 0 1024 768"><desc>SVG generated by Keynote</desc><defs></defs><g transform="matrix(1.00, 0.00, -0.00, -1.00, 0.0, 768.0)"><path d="M 0.0 768.0 L 1024.0 768.0 L 1024.0 0.0 L 0.0 0.0 Z M 0.0 768.0 " fill="#212121"></path><text xml:space="preserve" font-family="DINCondensed-Bold" font-weight="bold" font-size="170.0" fill="#34A4DA" transform="matrix(1.00, 0.00, -0.00, -1.00, 36.0, 325.0)">T</text><text xml:space="preserve" font-family="DINCondensed-Bold" font-weight="bold" font-size="170.0" fill="#34A4DA" transform="matrix(1.00, 0.00, -0.00, -1.00, 92.4, 325.0)">H</text><text xml:space="preserve" font-family="DINCondensed-Bold" font-weight="bold" font-size="170.0" fill="#34A4DA" transform="matrix(1.00, 0.00, -0.00, -1.00, 164.9, 325.0)">E</text><text xml:space="preserve" font-family="DINCondensed-Bold" font-weight="bold" font-size="170.0" fill="#34A4DA" transform="matrix(1.00, 0.00, -0.00, -1.00, 227.8, 325.0)"> </text><text xml:space="preserve" font-family="DINCondensed-Bold" font-weight="bold" font-size="170.0" fill="#34A4DA" transform="matrix(1.00, 0.00, -0.00, -1.00, 259.4, 325.0)">D</text><text xml:space="preserve" font-family="DINCondensed-Bold" font-weight="bold" font-size="170.0" fill="#34A4DA" transform="matrix(1.00, 0.00, -0.00, -1.00, 331.8, 325.0)">I</text><text xml:space="preserve" font-family="DINCondensed-Bold" font-weight="bold" font-size="170.0" fill="#34A4DA" transform="matrix(1.00, 0.00, -0.00, -1.00, 366.5, 325.0)">G</text><text xml:space="preserve" font-family="DINCondensed-Bold" font-weight="bold" font-size="170.0" fill="#34A4DA" transform="matrix(1.00, 0.00, -0.00, -1.00, 438.9, 325.0)">I</text><text xml:space="preserve" font-family="DINCondensed-Bold" font-weight="bold" font-size="170.0" fill="#34A4DA" transform="matrix(1.00, 0.00, -0.00, -1.00, 473.6, 325.0)">T</text><text xml:space="preserve" font-family="DINCondensed-Bold" font-weight="bold" font-size="170.0" fill="#34A4DA" transform="matrix(1.00, 0.00, -0.00, -1.00, 520.7, 325.0)">A</text><text xml:space="preserve" font-family="DINCondensed-Bold" font-weight="bold" font-size="170.0" fill="#34A4DA" transform="matrix(1.00, 0.00, -0.00, -1.00, 589.9, 325.0)">L</text><text xml:space="preserve" font-family="DINCondensed-Bold" font-weight="bold" font-size="170.0" fill="#34A4DA" transform="matrix(1.00, 0.00, -0.00, -1.00, 652.8, 325.0)"> </text><text xml:space="preserve" font-family="DINCondensed-Bold" font-weight="bold" font-size="170.0" fill="#34A4DA" transform="matrix(1.00, 0.00, -0.00, -1.00, 36.0, 155.0)">H</text><text xml:space="preserve" font-family="DINCondensed-Bold" font-weight="bold" font-size="170.0" fill="#34A4DA" transform="matrix(1.00, 0.00, -0.00, -1.00, 108.4, 155.0)">U</text><text xml:space="preserve" font-family="DINCondensed-Bold" font-weight="bold" font-size="170.0" fill="#34A4DA" transform="matrix(1.00, 0.00, -0.00, -1.00, 180.8, 155.0)">M</text><text xml:space="preserve" font-family="DINCondensed-Bold" font-weight="bold" font-size="170.0" fill="#34A4DA" transform="matrix(1.00, 0.00, -0.00, -1.00, 275.4, 155.0)">A</text><text xml:space="preserve" font-family="DINCondensed-Bold" font-weight="bold" font-size="170.0" fill="#34A4DA" transform="matrix(1.00, 0.00, -0.00, -1.00, 344.6, 155.0)">N</text><text xml:space="preserve" font-family="DINCondensed-Bold" font-weight="bold" font-size="170.0" fill="#34A4DA" transform="matrix(1.00, 0.00, -0.00, -1.00, 420.0, 155.0)">I</text><text xml:space="preserve" font-family="DINCondensed-Bold" font-weight="bold" font-size="170.0" fill="#34A4DA" transform="matrix(1.00, 0.00, -0.00, -1.00, 454.7, 155.0)">T</text><text xml:space="preserve" font-family="DINCondensed-Bold" font-weight="bold" font-size="170.0" fill="#34A4DA" transform="matrix(1.00, 0.00, -0.00, -1.00, 511.2, 155.0)">I</text><text xml:space="preserve" font-family="DINCondensed-Bold" font-weight="bold" font-size="170.0" fill="#34A4DA" transform="matrix(1.00, 0.00, -0.00, -1.00, 545.8, 155.0)">E</text><text xml:space="preserve" font-family="DINCondensed-Bold" font-weight="bold" font-size="170.0" fill="#34A4DA" transform="matrix(1.00, 0.00, -0.00, -1.00, 608.7, 155.0)">S</text></g></svg>