<?xml version="1.0" encoding="UTF-8" standalone="no"?><svg xmlns="http://www.w3.org/2000/svg" xmlns:xlink="http://www.w3.org/1999/xlink" clip-rule="evenodd" stroke-miterlimit="4.00" viewBox="0 0 1024 768"><desc>SVG generated by Keynote</desc><defs></defs><g transform="matrix(1.00, 0.00, -0.00, -1.00, 0.0, 768.0)"><path d="M 0.0 768.0 L 1024.0 768.0 L 1024.0 0.0 L 0.0 0.0 Z M 0.0 768.0 " fill="#212121"></path><path d="M 0.0 0.0 L 960.0 0.0 " fill="none" stroke="#A6AAA9" stroke-width="2.00" transform="matrix(1.00, 0.00, 0.00, -1.00, 32.0, 689.8)"></path><text xml:space="preserve" font-family="DINCondensed-Bold" font-weight="bold" font-size="48.0" fill="#34A4DA" transform="matrix(1.00, 0.00, -0.00, -1.00, 36.0, 608.0)">W</text><text xml:space="preserve" font-family="DINCondensed-Bold" font-weight="bold" font-size="48.0" fill="#34A4DA" transform="matrix(1.00, 0.00, -0.00, -1.00, 64.5, 608.0)">H</text><text xml:space="preserve" font-family="DINCondensed-Bold" font-weight="bold" font-size="48.0" fill="#34A4DA" transform="matrix(1.00, 0.00, -0.00, -1.00, 84.9, 608.0)">A</text><text xml:space="preserve" font-family="DINCondensed-Bold" font-weight="bold" font-size="48.0" fill="#34A4DA" transform="matrix(1.00, 0.00, -0.00, -1.00, 101.8, 608.0)">T</text><text xml:space="preserve" font-family="DINCondensed-Bold" font-weight="bold" font-size="48.0" fill="#34A4DA" transform="matrix(1.00, 0.00, -0.00, -1.00, 117.7, 608.0)"> </text><text xml:space="preserve" font-family="DINCondensed-Bold" font-weight="bold" font-size="48.0" fill="#34A4DA" transform="matrix(1.00, 0.00, -0.00, -1.00, 126.7, 608.0)">A</text><text xml:space="preserve" font-family="DINCondensed-Bold" font-weight="bold" font-size="48.0" fill="#34A4DA" transform="matrix(1.00, 0.00, -0.00, -1.00, 146.2, 608.0)">R</text><text xml:space="preserve" font-family="DINCondensed-Bold" font-weight="bold" font-size="48.0" fill="#34A4DA" transform="matrix(1.00, 0.00, -0.00, -1.00, 166.7, 608.0)">E</text><text xml:space="preserve" font-family="DINCondensed-Bold" font-weight="bold" font-size="48.0" fill="#34A4DA" transform="matrix(1.00, 0.00, -0.00, -1.00, 184.4, 608.0)"> </text><text xml:space="preserve" font-family="DINCondensed-Bold" font-weight="bold" font-size="48.0" fill="#34A4DA" transform="matrix(1.00, 0.00, -0.00, -1.00, 193.3, 608.0)">T</text><text xml:space="preserve" font-family="DINCondensed-Bold" font-weight="bold" font-size="48.0" fill="#34A4DA" transform="matrix(1.00, 0.00, -0.00, -1.00, 209.3, 608.0)">H</text><text xml:space="preserve" font-family="DINCondensed-Bold" font-weight="bold" font-size="48.0" fill="#34A4DA" transform="matrix(1.00, 0.00, -0.00, -1.00, 229.7, 608.0)">E</text><text xml:space="preserve" font-family="DINCondensed-Bold" font-weight="bold" font-size="48.0" fill="#34A4DA" transform="matrix(1.00, 0.00, -0.00, -1.00, 247.5, 608.0)"> </text><text xml:space="preserve" font-family="DINCondensed-Bold" font-weight="bold" font-size="48.0" fill="#34A4DA" transform="matrix(1.00, 0.00, -0.00, -1.00, 256.4, 608.0)">S</text><text xml:space="preserve" font-family="DINCondensed-Bold" font-weight="bold" font-size="48.0" fill="#34A4DA" transform="matrix(1.00, 0.00, -0.00, -1.00, 275.9, 608.0)">T</text><text xml:space="preserve" font-family="DINCondensed-Bold" font-weight="bold" font-size="48.0" fill="#34A4DA" transform="matrix(1.00, 0.00, -0.00, -1.00, 289.2, 608.0)">A</text><text xml:space="preserve" font-family="DINCondensed-Bold" font-weight="bold" font-size="48.0" fill="#34A4DA" transform="matrix(1.00, 0.00, -0.00, -1.00, 308.7, 608.0)">K</text><text xml:space="preserve" font-family="DINCondensed-Bold" font-weight="bold" font-size="48.0" fill="#34A4DA" transform="matrix(1.00, 0.00, -0.00, -1.00, 329.2, 608.0)">E</text><text xml:space="preserve" font-family="DINCondensed-Bold" font-weight="bold" font-size="48.0" fill="#34A4DA" transform="matrix(1.00, 0.00, -0.00, -1.00, 346.9, 608.0)">S</text><text xml:space="preserve" font-family="DINCondensed-Bold" font-weight="bold" font-size="48.0" fill="#34A4DA" transform="matrix(1.00, 0.00, -0.00, -1.00, 366.4, 608.0)"> </text><text xml:space="preserve" font-family="DINCondensed-Bold" font-weight="bold" font-size="48.0" fill="#34A4DA" transform="matrix(1.00, 0.00, -0.00, -1.00, 375.4, 608.0)">F</text><text xml:space="preserve" font-family="DINCondensed-Bold" font-weight="bold" font-size="48.0" fill="#34A4DA" transform="matrix(1.00, 0.00, -0.00, -1.00, 393.1, 608.0)">O</text><text xml:space="preserve" font-family="DINCondensed-Bold" font-weight="bold" font-size="48.0" fill="#34A4DA" transform="matrix(1.00, 0.00, -0.00, -1.00, 413.6, 608.0)">R</text><text xml:space="preserve" font-family="DINCondensed-Bold" font-weight="bold" font-size="48.0" fill="#34A4DA" transform="matrix(1.00, 0.00, -0.00, -1.00, 434.0, 608.0)"> </text><text xml:space="preserve" font-family="DINCondensed-Bold" font-weight="bold" font-size="48.0" fill="#34A4DA" transform="matrix(1.00, 0.00, -0.00, -1.00, 442.9, 608.0)">D</text><text xml:space="preserve" font-family="DINCondensed-Bold" font-weight="bold" font-size="48.0" fill="#34A4DA" transform="matrix(1.00, 0.00, -0.00, -1.00, 463.4, 608.0)">O</text><text xml:space="preserve" font-family="DINCondensed-Bold" font-weight="bold" font-size="48.0" fill="#34A4DA" transform="matrix(1.00, 0.00, -0.00, -1.00, 483.8, 608.0)">I</text><text xml:space="preserve" font-family="DINCondensed-Bold" font-weight="bold" font-size="48.0" fill="#34A4DA" transform="matrix(1.00, 0.00, -0.00, -1.00, 493.6, 608.0)">N</text><text xml:space="preserve" font-family="DINCondensed-Bold" font-weight="bold" font-size="48.0" fill="#34A4DA" transform="matrix(1.00, 0.00, -0.00, -1.00, 514.9, 608.0)">G</text><text xml:space="preserve" font-family="DINCondensed-Bold" font-weight="bold" font-size="48.0" fill="#34A4DA" transform="matrix(1.00, 0.00, -0.00, -1.00, 535.4, 608.0)"> </text><text xml:space="preserve" font-family="DINCondensed-Bold" font-weight="bold" font-size="48.0" fill="#34A4DA" transform="matrix(1.00, 0.00, -0.00, -1.00, 544.3, 608.0)">D</text><text xml:space="preserve" font-family="DINCondensed-Bold" font-weight="bold" font-size="48.0" fill="#34A4DA" transform="matrix(1.00, 0.00, -0.00, -1.00, 564.8, 608.0)">I</text><text xml:space="preserve" font-family="DINCondensed-Bold" font-weight="bold" font-size="48.0" fill="#34A4DA" transform="matrix(1.00, 0.00, -0.00, -1.00, 574.6, 608.0)">G</text><text xml:space="preserve" font-family="DINCondensed-Bold" font-weight="bold" font-size="48.0" fill="#34A4DA" transform="matrix(1.00, 0.00, -0.00, -1.00, 595.0, 608.0)">I</text><text xml:space="preserve" font-family="DINCondensed-Bold" font-weight="bold" font-size="48.0" fill="#34A4DA" transform="matrix(1.00, 0.00, -0.00, -1.00, 604.8, 608.0)">T</text><text xml:space="preserve" font-family="DINCondensed-Bold" font-weight="bold" font-size="48.0" fill="#34A4DA" transform="matrix(1.00, 0.00, -0.00, -1.00, 618.1, 608.0)">A</text><text xml:space="preserve" font-family="DINCondensed-Bold" font-weight="bold" font-size="48.0" fill="#34A4DA" transform="matrix(1.00, 0.00, -0.00, -1.00, 637.6, 608.0)">L</text><text xml:space="preserve" font-family="DINCondensed-Bold" font-weight="bold" font-size="48.0" fill="#34A4DA" transform="matrix(1.00, 0.00, -0.00, -1.00, 655.4, 608.0)"> </text><text xml:space="preserve" font-family="DINCondensed-Bold" font-weight="bold" font-size="48.0" fill="#34A4DA" transform="matrix(1.00, 0.00, -0.00, -1.00, 664.3, 608.0)">W</text><text xml:space="preserve" font-family="DINCondensed-Bold" font-weight="bold" font-size="48.0" fill="#34A4DA" transform="matrix(1.00, 0.00, -0.00, -1.00, 692.2, 608.0)">O</text><text xml:space="preserve" font-family="DINCondensed-Bold" font-weight="bold" font-size="48.0" fill="#34A4DA" transform="matrix(1.00, 0.00, -0.00, -1.00, 712.7, 608.0)">R</text><text xml:space="preserve" font-family="DINCondensed-Bold" font-weight="bold" font-size="48.0" fill="#34A4DA" transform="matrix(1.00, 0.00, -0.00, -1.00, 733.1, 608.0)">K</text><text xml:space="preserve" font-family="DINCondensed-Bold" font-weight="bold" font-size="48.0" fill="#34A4DA" transform="matrix(1.00, 0.00, -0.00, -1.00, 753.6, 608.0)">?</text><text xml:space="preserve" font-family="LucidaGrande" font-size="39.7" fill="#34A4DA" transform="matrix(1.00, 0.00, -0.00, -1.00, 36.0, 506.4)">▸</text><text xml:space="preserve" font-family="InputSans-Regular" font-size="37.8" fill="#A5A9AA" transform="matrix(1.00, 0.00, -0.00, -1.00, 65.0, 504.0)">W</text><text xml:space="preserve" font-family="InputSans-Regular" font-size="37.8" fill="#A5A9AA" transform="matrix(1.00, 0.00, -0.00, -1.00, 95.9, 504.0)">h</text><text xml:space="preserve" font-family="InputSans-Regular" font-size="37.8" fill="#A5A9AA" transform="matrix(1.00, 0.00, -0.00, -1.00, 120.0, 504.0)">e</text><text xml:space="preserve" font-family="InputSans-Regular" font-size="37.8" fill="#A5A9AA" transform="matrix(1.00, 0.00, -0.00, -1.00, 144.0, 504.0)">n</text><text xml:space="preserve" font-family="InputSans-Regular" font-size="37.8" fill="#A5A9AA" transform="matrix(1.00, 0.00, -0.00, -1.00, 188.7, 504.0)">t</text><text xml:space="preserve" font-family="InputSans-Regular" font-size="37.8" fill="#A5A9AA" transform="matrix(1.00, 0.00, -0.00, -1.00, 209.3, 504.0)">h</text><text xml:space="preserve" font-family="InputSans-Regular" font-size="37.8" fill="#A5A9AA" transform="matrix(1.00, 0.00, -0.00, -1.00, 233.4, 504.0)">e</text><text xml:space="preserve" font-family="InputSans-Regular" font-size="37.8" fill="#A5A9AA" transform="matrix(1.00, 0.00, -0.00, -1.00, 278.1, 504.0)">a</text><text xml:space="preserve" font-family="InputSans-Regular" font-size="37.8" fill="#A5A9AA" transform="matrix(1.00, 0.00, -0.00, -1.00, 305.5, 504.0)">n</text><text xml:space="preserve" font-family="InputSans-Regular" font-size="37.8" fill="#A5A9AA" transform="matrix(1.00, 0.00, -0.00, -1.00, 329.6, 504.0)">a</text><text xml:space="preserve" font-family="InputSans-Regular" font-size="37.8" fill="#A5A9AA" transform="matrix(1.00, 0.00, -0.00, -1.00, 355.4, 504.0)">l</text><text xml:space="preserve" font-family="InputSans-Regular" font-size="37.8" fill="#A5A9AA" transform="matrix(1.00, 0.00, -0.00, -1.00, 372.6, 504.0)">y</text><text xml:space="preserve" font-family="InputSans-Regular" font-size="37.8" fill="#A5A9AA" transform="matrix(1.00, 0.00, -0.00, -1.00, 393.2, 504.0)">s</text><text xml:space="preserve" font-family="InputSans-Regular" font-size="37.8" fill="#A5A9AA" transform="matrix(1.00, 0.00, -0.00, -1.00, 417.2, 504.0)">i</text><text xml:space="preserve" font-family="InputSans-Regular" font-size="37.8" fill="#A5A9AA" transform="matrix(1.00, 0.00, -0.00, -1.00, 434.4, 504.0)">s</text><text xml:space="preserve" font-family="InputSans-Regular" font-size="37.8" fill="#A5A9AA" transform="matrix(1.00, 0.00, -0.00, -1.00, 479.1, 504.0)">r</text><text xml:space="preserve" font-family="InputSans-Regular" font-size="37.8" fill="#A5A9AA" transform="matrix(1.00, 0.00, -0.00, -1.00, 499.7, 504.0)">e</text><text xml:space="preserve" font-family="InputSans-Regular" font-size="37.8" fill="#A5A9AA" transform="matrix(1.00, 0.00, -0.00, -1.00, 523.8, 504.0)">q</text><text xml:space="preserve" font-family="InputSans-Regular" font-size="37.8" fill="#A5A9AA" transform="matrix(1.00, 0.00, -0.00, -1.00, 547.8, 504.0)">u</text><text xml:space="preserve" font-family="InputSans-Regular" font-size="37.8" fill="#A5A9AA" transform="matrix(1.00, 0.00, -0.00, -1.00, 571.9, 504.0)">i</text><text xml:space="preserve" font-family="InputSans-Regular" font-size="37.8" fill="#A5A9AA" transform="matrix(1.00, 0.00, -0.00, -1.00, 589.0, 504.0)">r</text><text xml:space="preserve" font-family="InputSans-Regular" font-size="37.8" fill="#A5A9AA" transform="matrix(1.00, 0.00, -0.00, -1.00, 609.7, 504.0)">e</text><text xml:space="preserve" font-family="InputSans-Regular" font-size="37.8" fill="#A5A9AA" transform="matrix(1.00, 0.00, -0.00, -1.00, 633.7, 504.0)">s</text><text xml:space="preserve" font-family="InputSans-Regular" font-size="37.8" fill="#A5A9AA" transform="matrix(1.00, 0.00, -0.00, -1.00, 678.4, 504.0)">t</text><text xml:space="preserve" font-family="InputSans-Regular" font-size="37.8" fill="#A5A9AA" transform="matrix(1.00, 0.00, -0.00, -1.00, 699.0, 504.0)">e</text><text xml:space="preserve" font-family="InputSans-Regular" font-size="37.8" fill="#A5A9AA" transform="matrix(1.00, 0.00, -0.00, -1.00, 723.1, 504.0)">c</text><text xml:space="preserve" font-family="InputSans-Regular" font-size="37.8" fill="#A5A9AA" transform="matrix(1.00, 0.00, -0.00, -1.00, 747.1, 504.0)">h</text><text xml:space="preserve" font-family="InputSans-Regular" font-size="37.8" fill="#A5A9AA" transform="matrix(1.00, 0.00, -0.00, -1.00, 771.2, 504.0)">n</text><text xml:space="preserve" font-family="InputSans-Regular" font-size="37.8" fill="#A5A9AA" transform="matrix(1.00, 0.00, -0.00, -1.00, 795.2, 504.0)">i</text><text xml:space="preserve" font-family="InputSans-Regular" font-size="37.8" fill="#A5A9AA" transform="matrix(1.00, 0.00, -0.00, -1.00, 812.4, 504.0)">q</text><text xml:space="preserve" font-family="InputSans-Regular" font-size="37.8" fill="#A5A9AA" transform="matrix(1.00, 0.00, -0.00, -1.00, 836.5, 504.0)">u</text><text xml:space="preserve" font-family="InputSans-Regular" font-size="37.8" fill="#A5A9AA" transform="matrix(1.00, 0.00, -0.00, -1.00, 860.5, 504.0)">e</text><text xml:space="preserve" font-family="InputSans-Regular" font-size="37.8" fill="#A5A9AA" transform="matrix(1.00, 0.00, -0.00, -1.00, 884.6, 504.0)">s</text><text xml:space="preserve" font-family="InputSans-Regular" font-size="37.8" fill="#A5A9AA" transform="matrix(1.00, 0.00, -0.00, -1.00, 65.0, 450.0)">t</text><text xml:space="preserve" font-family="InputSans-Regular" font-size="37.8" fill="#A5A9AA" transform="matrix(1.00, 0.00, -0.00, -1.00, 85.6, 450.0)">h</text><text xml:space="preserve" font-family="InputSans-Regular" font-size="37.8" fill="#A5A9AA" transform="matrix(1.00, 0.00, -0.00, -1.00, 109.7, 450.0)">a</text><text xml:space="preserve" font-family="InputSans-Regular" font-size="37.8" fill="#A5A9AA" transform="matrix(1.00, 0.00, -0.00, -1.00, 135.4, 450.0)">t</text><text xml:space="preserve" font-family="InputSans-Regular" font-size="37.8" fill="#A5A9AA" transform="matrix(1.00, 0.00, -0.00, -1.00, 176.7, 450.0)">a</text><text xml:space="preserve" font-family="InputSans-Regular" font-size="37.8" fill="#A5A9AA" transform="matrix(1.00, 0.00, -0.00, -1.00, 204.2, 450.0)">r</text><text xml:space="preserve" font-family="InputSans-Regular" font-size="37.8" fill="#A5A9AA" transform="matrix(1.00, 0.00, -0.00, -1.00, 224.8, 450.0)">e</text><text xml:space="preserve" font-family="InputSans-Regular" font-size="37.8" fill="#A5A9AA" transform="matrix(1.00, 0.00, -0.00, -1.00, 269.5, 450.0)">h</text><text xml:space="preserve" font-family="InputSans-Regular" font-size="37.8" fill="#A5A9AA" transform="matrix(1.00, 0.00, -0.00, -1.00, 293.5, 450.0)">a</text><text xml:space="preserve" font-family="InputSans-Regular" font-size="37.8" fill="#A5A9AA" transform="matrix(1.00, 0.00, -0.00, -1.00, 321.0, 450.0)">r</text><text xml:space="preserve" font-family="InputSans-Regular" font-size="37.8" fill="#A5A9AA" transform="matrix(1.00, 0.00, -0.00, -1.00, 341.6, 450.0)">d</text><text xml:space="preserve" font-family="InputSans-Regular" font-size="37.8" fill="#A5A9AA" transform="matrix(1.00, 0.00, -0.00, -1.00, 386.3, 450.0)">f</text><text xml:space="preserve" font-family="InputSans-Regular" font-size="37.8" fill="#A5A9AA" transform="matrix(1.00, 0.00, -0.00, -1.00, 406.9, 450.0)">o</text><text xml:space="preserve" font-family="InputSans-Regular" font-size="37.8" fill="#A5A9AA" transform="matrix(1.00, 0.00, -0.00, -1.00, 431.0, 450.0)">r</text><text xml:space="preserve" font-family="InputSans-Regular" font-size="37.8" fill="#A5A9AA" transform="matrix(1.00, 0.00, -0.00, -1.00, 472.2, 450.0)">h</text><text xml:space="preserve" font-family="InputSans-Regular" font-size="37.8" fill="#A5A9AA" transform="matrix(1.00, 0.00, -0.00, -1.00, 496.3, 450.0)">u</text><text xml:space="preserve" font-family="InputSans-Regular" font-size="37.8" fill="#A5A9AA" transform="matrix(1.00, 0.00, -0.00, -1.00, 520.3, 450.0)">m</text><text xml:space="preserve" font-family="InputSans-Regular" font-size="37.8" fill="#A5A9AA" transform="matrix(1.00, 0.00, -0.00, -1.00, 554.7, 450.0)">a</text><text xml:space="preserve" font-family="InputSans-Regular" font-size="37.8" fill="#A5A9AA" transform="matrix(1.00, 0.00, -0.00, -1.00, 582.2, 450.0)">n</text><text xml:space="preserve" font-family="InputSans-Regular" font-size="37.8" fill="#A5A9AA" transform="matrix(1.00, 0.00, -0.00, -1.00, 606.2, 450.0)">s</text><text xml:space="preserve" font-family="InputSans-Regular" font-size="37.8" fill="#A5A9AA" transform="matrix(1.00, 0.00, -0.00, -1.00, 650.9, 450.0)">t</text><text xml:space="preserve" font-family="InputSans-Regular" font-size="37.8" fill="#A5A9AA" transform="matrix(1.00, 0.00, -0.00, -1.00, 671.5, 450.0)">o</text><text xml:space="preserve" font-family="InputSans-Regular" font-size="37.8" fill="#A5A9AA" transform="matrix(1.00, 0.00, -0.00, -1.00, 716.2, 450.0)">d</text><text xml:space="preserve" font-family="InputSans-Regular" font-size="37.8" fill="#A5A9AA" transform="matrix(1.00, 0.00, -0.00, -1.00, 740.2, 450.0)">o</text><text xml:space="preserve" font-family="InputSans-Regular" font-size="37.8" fill="#A5A9AA" transform="matrix(1.00, 0.00, -0.00, -1.00, 764.3, 450.0)">,</text><text xml:space="preserve" font-family="InputSans-Regular" font-size="37.8" fill="#A5A9AA" transform="matrix(1.00, 0.00, -0.00, -1.00, 809.0, 450.0)">b</text><text xml:space="preserve" font-family="InputSans-Regular" font-size="37.8" fill="#A5A9AA" transform="matrix(1.00, 0.00, -0.00, -1.00, 833.0, 450.0)">u</text><text xml:space="preserve" font-family="InputSans-Regular" font-size="37.8" fill="#A5A9AA" transform="matrix(1.00, 0.00, -0.00, -1.00, 857.1, 450.0)">t</text><text xml:space="preserve" font-family="InputSans-Regular" font-size="37.8" fill="#A5A9AA" transform="matrix(1.00, 0.00, -0.00, -1.00, 65.0, 396.0)">e</text><text xml:space="preserve" font-family="InputSans-Regular" font-size="37.8" fill="#A5A9AA" transform="matrix(1.00, 0.00, -0.00, -1.00, 89.1, 396.0)">a</text><text xml:space="preserve" font-family="InputSans-Regular" font-size="37.8" fill="#A5A9AA" transform="matrix(1.00, 0.00, -0.00, -1.00, 116.5, 396.0)">s</text><text xml:space="preserve" font-family="InputSans-Regular" font-size="37.8" fill="#A5A9AA" transform="matrix(1.00, 0.00, -0.00, -1.00, 140.6, 396.0)">y</text><text xml:space="preserve" font-family="InputSans-Regular" font-size="37.8" fill="#A5A9AA" transform="matrix(1.00, 0.00, -0.00, -1.00, 181.8, 396.0)">f</text><text xml:space="preserve" font-family="InputSans-Regular" font-size="37.8" fill="#A5A9AA" transform="matrix(1.00, 0.00, -0.00, -1.00, 202.5, 396.0)">o</text><text xml:space="preserve" font-family="InputSans-Regular" font-size="37.8" fill="#A5A9AA" transform="matrix(1.00, 0.00, -0.00, -1.00, 226.5, 396.0)">r</text><text xml:space="preserve" font-family="InputSans-Regular" font-size="37.8" fill="#A5A9AA" transform="matrix(1.00, 0.00, -0.00, -1.00, 267.7, 396.0)">c</text><text xml:space="preserve" font-family="InputSans-Regular" font-size="37.8" fill="#A5A9AA" transform="matrix(1.00, 0.00, -0.00, -1.00, 291.8, 396.0)">o</text><text xml:space="preserve" font-family="InputSans-Regular" font-size="37.8" fill="#A5A9AA" transform="matrix(1.00, 0.00, -0.00, -1.00, 315.9, 396.0)">m</text><text xml:space="preserve" font-family="InputSans-Regular" font-size="37.8" fill="#A5A9AA" transform="matrix(1.00, 0.00, -0.00, -1.00, 350.2, 396.0)">p</text><text xml:space="preserve" font-family="InputSans-Regular" font-size="37.8" fill="#A5A9AA" transform="matrix(1.00, 0.00, -0.00, -1.00, 374.3, 396.0)">u</text><text xml:space="preserve" font-family="InputSans-Regular" font-size="37.8" fill="#A5A9AA" transform="matrix(1.00, 0.00, -0.00, -1.00, 398.3, 396.0)">t</text><text xml:space="preserve" font-family="InputSans-Regular" font-size="37.8" fill="#A5A9AA" transform="matrix(1.00, 0.00, -0.00, -1.00, 418.9, 396.0)">e</text><text xml:space="preserve" font-family="InputSans-Regular" font-size="37.8" fill="#A5A9AA" transform="matrix(1.00, 0.00, -0.00, -1.00, 443.0, 396.0)">r</text><text xml:space="preserve" font-family="InputSans-Regular" font-size="37.8" fill="#A5A9AA" transform="matrix(1.00, 0.00, -0.00, -1.00, 463.6, 396.0)">s</text><text xml:space="preserve" font-family="InputSans-Regular" font-size="37.8" fill="#A5A9AA" transform="matrix(1.00, 0.00, -0.00, -1.00, 508.3, 396.0)">t</text><text xml:space="preserve" font-family="InputSans-Regular" font-size="37.8" fill="#A5A9AA" transform="matrix(1.00, 0.00, -0.00, -1.00, 528.9, 396.0)">o</text><text xml:space="preserve" font-family="InputSans-Regular" font-size="37.8" fill="#A5A9AA" transform="matrix(1.00, 0.00, -0.00, -1.00, 573.6, 396.0)">d</text><text xml:space="preserve" font-family="InputSans-Regular" font-size="37.8" fill="#A5A9AA" transform="matrix(1.00, 0.00, -0.00, -1.00, 597.6, 396.0)">o</text><text xml:space="preserve" font-family="InputSans-Regular" font-size="37.8" fill="#A5A9AA" transform="matrix(1.00, 0.00, -0.00, -1.00, 621.7, 396.0)">.</text><text xml:space="preserve" font-family="LucidaGrande" font-size="39.7" fill="#34A4DA" transform="matrix(1.00, 0.00, -0.00, -1.00, 36.0, 320.9)">▸</text><text xml:space="preserve" font-family="InputSans-Regular" font-size="37.8" fill="#A5A9AA" transform="matrix(1.00, 0.00, -0.00, -1.00, 65.0, 319.0)">W</text><text xml:space="preserve" font-family="InputSans-Regular" font-size="37.8" fill="#A5A9AA" transform="matrix(1.00, 0.00, -0.00, -1.00, 95.9, 319.0)">h</text><text xml:space="preserve" font-family="InputSans-Regular" font-size="37.8" fill="#A5A9AA" transform="matrix(1.00, 0.00, -0.00, -1.00, 120.0, 319.0)">e</text><text xml:space="preserve" font-family="InputSans-Regular" font-size="37.8" fill="#A5A9AA" transform="matrix(1.00, 0.00, -0.00, -1.00, 144.0, 319.0)">n</text><text xml:space="preserve" font-family="InputSans-Regular" font-size="37.8" fill="#A5A9AA" transform="matrix(1.00, 0.00, -0.00, -1.00, 188.7, 319.0)">t</text><text xml:space="preserve" font-family="InputSans-Regular" font-size="37.8" fill="#A5A9AA" transform="matrix(1.00, 0.00, -0.00, -1.00, 209.3, 319.0)">h</text><text xml:space="preserve" font-family="InputSans-Regular" font-size="37.8" fill="#A5A9AA" transform="matrix(1.00, 0.00, -0.00, -1.00, 233.4, 319.0)">e</text><text xml:space="preserve" font-family="InputSans-Regular" font-size="37.8" fill="#A5A9AA" transform="matrix(1.00, 0.00, -0.00, -1.00, 278.1, 319.0)">d</text><text xml:space="preserve" font-family="InputSans-Regular" font-size="37.8" fill="#A5A9AA" transform="matrix(1.00, 0.00, -0.00, -1.00, 302.1, 319.0)">i</text><text xml:space="preserve" font-family="InputSans-Regular" font-size="37.8" fill="#A5A9AA" transform="matrix(1.00, 0.00, -0.00, -1.00, 319.3, 319.0)">g</text><text xml:space="preserve" font-family="InputSans-Regular" font-size="37.8" fill="#A5A9AA" transform="matrix(1.00, 0.00, -0.00, -1.00, 346.8, 319.0)">i</text><text xml:space="preserve" font-family="InputSans-Regular" font-size="37.8" fill="#A5A9AA" transform="matrix(1.00, 0.00, -0.00, -1.00, 364.0, 319.0)">t</text><text xml:space="preserve" font-family="InputSans-Regular" font-size="37.8" fill="#A5A9AA" transform="matrix(1.00, 0.00, -0.00, -1.00, 384.6, 319.0)">a</text><text xml:space="preserve" font-family="InputSans-Regular" font-size="37.8" fill="#A5A9AA" transform="matrix(1.00, 0.00, -0.00, -1.00, 410.4, 319.0)">l</text><text xml:space="preserve" font-family="InputSans-Regular" font-size="37.8" fill="#A5A9AA" transform="matrix(1.00, 0.00, -0.00, -1.00, 448.2, 319.0)">p</text><text xml:space="preserve" font-family="InputSans-Regular" font-size="37.8" fill="#A5A9AA" transform="matrix(1.00, 0.00, -0.00, -1.00, 472.2, 319.0)">r</text><text xml:space="preserve" font-family="InputSans-Regular" font-size="37.8" fill="#A5A9AA" transform="matrix(1.00, 0.00, -0.00, -1.00, 492.8, 319.0)">e</text><text xml:space="preserve" font-family="InputSans-Regular" font-size="37.8" fill="#A5A9AA" transform="matrix(1.00, 0.00, -0.00, -1.00, 516.9, 319.0)">s</text><text xml:space="preserve" font-family="InputSans-Regular" font-size="37.8" fill="#A5A9AA" transform="matrix(1.00, 0.00, -0.00, -1.00, 540.9, 319.0)">e</text><text xml:space="preserve" font-family="InputSans-Regular" font-size="37.8" fill="#A5A9AA" transform="matrix(1.00, 0.00, -0.00, -1.00, 565.0, 319.0)">n</text><text xml:space="preserve" font-family="InputSans-Regular" font-size="37.8" fill="#A5A9AA" transform="matrix(1.00, 0.00, -0.00, -1.00, 589.0, 319.0)">t</text><text xml:space="preserve" font-family="InputSans-Regular" font-size="37.8" fill="#A5A9AA" transform="matrix(1.00, 0.00, -0.00, -1.00, 609.7, 319.0)">a</text><text xml:space="preserve" font-family="InputSans-Regular" font-size="37.8" fill="#A5A9AA" transform="matrix(1.00, 0.00, -0.00, -1.00, 635.4, 319.0)">t</text><text xml:space="preserve" font-family="InputSans-Regular" font-size="37.8" fill="#A5A9AA" transform="matrix(1.00, 0.00, -0.00, -1.00, 656.1, 319.0)">i</text><text xml:space="preserve" font-family="InputSans-Regular" font-size="37.8" fill="#A5A9AA" transform="matrix(1.00, 0.00, -0.00, -1.00, 673.2, 319.0)">o</text><text xml:space="preserve" font-family="InputSans-Regular" font-size="37.8" fill="#A5A9AA" transform="matrix(1.00, 0.00, -0.00, -1.00, 697.3, 319.0)">n</text><text xml:space="preserve" font-family="InputSans-Regular" font-size="37.8" fill="#A5A9AA" transform="matrix(1.00, 0.00, -0.00, -1.00, 742.0, 319.0)">m</text><text xml:space="preserve" font-family="InputSans-Regular" font-size="37.8" fill="#A5A9AA" transform="matrix(1.00, 0.00, -0.00, -1.00, 776.3, 319.0)">e</text><text xml:space="preserve" font-family="InputSans-Regular" font-size="37.8" fill="#A5A9AA" transform="matrix(1.00, 0.00, -0.00, -1.00, 800.4, 319.0)">d</text><text xml:space="preserve" font-family="InputSans-Regular" font-size="37.8" fill="#A5A9AA" transform="matrix(1.00, 0.00, -0.00, -1.00, 824.4, 319.0)">i</text><text xml:space="preserve" font-family="InputSans-Regular" font-size="37.8" fill="#A5A9AA" transform="matrix(1.00, 0.00, -0.00, -1.00, 841.6, 319.0)">a</text><text xml:space="preserve" font-family="InputSans-Regular" font-size="37.8" fill="#A5A9AA" transform="matrix(1.00, 0.00, -0.00, -1.00, 65.0, 265.0)">a</text><text xml:space="preserve" font-family="InputSans-Regular" font-size="37.8" fill="#A5A9AA" transform="matrix(1.00, 0.00, -0.00, -1.00, 90.8, 265.0)">l</text><text xml:space="preserve" font-family="InputSans-Regular" font-size="37.8" fill="#A5A9AA" transform="matrix(1.00, 0.00, -0.00, -1.00, 108.0, 265.0)">l</text><text xml:space="preserve" font-family="InputSans-Regular" font-size="37.8" fill="#A5A9AA" transform="matrix(1.00, 0.00, -0.00, -1.00, 125.1, 265.0)">o</text><text xml:space="preserve" font-family="InputSans-Regular" font-size="37.8" fill="#A5A9AA" transform="matrix(1.00, 0.00, -0.00, -1.00, 149.2, 265.0)">w</text><text xml:space="preserve" font-family="InputSans-Regular" font-size="37.8" fill="#A5A9AA" transform="matrix(1.00, 0.00, -0.00, -1.00, 200.7, 265.0)">y</text><text xml:space="preserve" font-family="InputSans-Regular" font-size="37.8" fill="#A5A9AA" transform="matrix(1.00, 0.00, -0.00, -1.00, 221.4, 265.0)">o</text><text xml:space="preserve" font-family="InputSans-Regular" font-size="37.8" fill="#A5A9AA" transform="matrix(1.00, 0.00, -0.00, -1.00, 245.4, 265.0)">u</text><text xml:space="preserve" font-family="InputSans-Regular" font-size="37.8" fill="#A5A9AA" transform="matrix(1.00, 0.00, -0.00, -1.00, 269.5, 265.0)">r</text><text xml:space="preserve" font-family="InputSans-Regular" font-size="37.8" fill="#A5A9AA" transform="matrix(1.00, 0.00, -0.00, -1.00, 310.7, 265.0)">a</text><text xml:space="preserve" font-family="InputSans-Regular" font-size="37.8" fill="#A5A9AA" transform="matrix(1.00, 0.00, -0.00, -1.00, 338.2, 265.0)">r</text><text xml:space="preserve" font-family="InputSans-Regular" font-size="37.8" fill="#A5A9AA" transform="matrix(1.00, 0.00, -0.00, -1.00, 358.8, 265.0)">g</text><text xml:space="preserve" font-family="InputSans-Regular" font-size="37.8" fill="#A5A9AA" transform="matrix(1.00, 0.00, -0.00, -1.00, 386.3, 265.0)">u</text><text xml:space="preserve" font-family="InputSans-Regular" font-size="37.8" fill="#A5A9AA" transform="matrix(1.00, 0.00, -0.00, -1.00, 410.4, 265.0)">m</text><text xml:space="preserve" font-family="InputSans-Regular" font-size="37.8" fill="#A5A9AA" transform="matrix(1.00, 0.00, -0.00, -1.00, 444.7, 265.0)">e</text><text xml:space="preserve" font-family="InputSans-Regular" font-size="37.8" fill="#A5A9AA" transform="matrix(1.00, 0.00, -0.00, -1.00, 468.8, 265.0)">n</text><text xml:space="preserve" font-family="InputSans-Regular" font-size="37.8" fill="#A5A9AA" transform="matrix(1.00, 0.00, -0.00, -1.00, 492.8, 265.0)">t</text><text xml:space="preserve" font-family="InputSans-Regular" font-size="37.8" fill="#A5A9AA" transform="matrix(1.00, 0.00, -0.00, -1.00, 534.1, 265.0)">t</text><text xml:space="preserve" font-family="InputSans-Regular" font-size="37.8" fill="#A5A9AA" transform="matrix(1.00, 0.00, -0.00, -1.00, 554.7, 265.0)">o</text><text xml:space="preserve" font-family="InputSans-Regular" font-size="37.8" fill="#A5A9AA" transform="matrix(1.00, 0.00, -0.00, -1.00, 599.4, 265.0)">t</text><text xml:space="preserve" font-family="InputSans-Regular" font-size="37.8" fill="#A5A9AA" transform="matrix(1.00, 0.00, -0.00, -1.00, 620.0, 265.0)">a</text><text xml:space="preserve" font-family="InputSans-Regular" font-size="37.8" fill="#A5A9AA" transform="matrix(1.00, 0.00, -0.00, -1.00, 647.5, 265.0)">k</text><text xml:space="preserve" font-family="InputSans-Regular" font-size="37.8" fill="#A5A9AA" transform="matrix(1.00, 0.00, -0.00, -1.00, 668.1, 265.0)">e</text><text xml:space="preserve" font-family="InputSans-Regular" font-size="37.8" fill="#A5A9AA" transform="matrix(1.00, 0.00, -0.00, -1.00, 712.8, 265.0)">n</text><text xml:space="preserve" font-family="InputSans-Regular" font-size="37.8" fill="#A5A9AA" transform="matrix(1.00, 0.00, -0.00, -1.00, 736.8, 265.0)">e</text><text xml:space="preserve" font-family="InputSans-Regular" font-size="37.8" fill="#A5A9AA" transform="matrix(1.00, 0.00, -0.00, -1.00, 760.9, 265.0)">w</text><text xml:space="preserve" font-family="InputSans-Regular" font-size="37.8" fill="#A5A9AA" transform="matrix(1.00, 0.00, -0.00, -1.00, 812.4, 265.0)">s</text><text xml:space="preserve" font-family="InputSans-Regular" font-size="37.8" fill="#A5A9AA" transform="matrix(1.00, 0.00, -0.00, -1.00, 836.5, 265.0)">h</text><text xml:space="preserve" font-family="InputSans-Regular" font-size="37.8" fill="#A5A9AA" transform="matrix(1.00, 0.00, -0.00, -1.00, 860.5, 265.0)">a</text><text xml:space="preserve" font-family="InputSans-Regular" font-size="37.8" fill="#A5A9AA" transform="matrix(1.00, 0.00, -0.00, -1.00, 888.0, 265.0)">p</text><text xml:space="preserve" font-family="InputSans-Regular" font-size="37.8" fill="#A5A9AA" transform="matrix(1.00, 0.00, -0.00, -1.00, 912.1, 265.0)">e</text><text xml:space="preserve" font-family="InputSans-Regular" font-size="37.8" fill="#A5A9AA" transform="matrix(1.00, 0.00, -0.00, -1.00, 936.1, 265.0)">s</text><text xml:space="preserve" font-family="InputSans-Regular" font-size="37.8" fill="#A5A9AA" transform="matrix(1.00, 0.00, -0.00, -1.00, 960.2, 265.0)">.</text><text xml:space="preserve" font-family="LucidaGrande" font-size="39.7" fill="#34A4DA" transform="matrix(1.00, 0.00, -0.00, -1.00, 36.0, 189.3)">▸</text><text xml:space="preserve" font-family="InputSans-Regular" font-size="37.8" fill="#A5A9AA" transform="matrix(1.00, 0.00, -0.00, -1.00, 65.0, 187.0)">W</text><text xml:space="preserve" font-family="InputSans-Regular" font-size="37.8" fill="#A5A9AA" transform="matrix(1.00, 0.00, -0.00, -1.00, 95.9, 187.0)">h</text><text xml:space="preserve" font-family="InputSans-Regular" font-size="37.8" fill="#A5A9AA" transform="matrix(1.00, 0.00, -0.00, -1.00, 120.0, 187.0)">e</text><text xml:space="preserve" font-family="InputSans-Regular" font-size="37.8" fill="#A5A9AA" transform="matrix(1.00, 0.00, -0.00, -1.00, 144.0, 187.0)">n</text><text xml:space="preserve" font-family="InputSans-Regular" font-size="37.8" fill="#A5A9AA" transform="matrix(1.00, 0.00, -0.00, -1.00, 188.7, 187.0)">t</text><text xml:space="preserve" font-family="InputSans-Regular" font-size="37.8" fill="#A5A9AA" transform="matrix(1.00, 0.00, -0.00, -1.00, 209.3, 187.0)">h</text><text xml:space="preserve" font-family="InputSans-Regular" font-size="37.8" fill="#A5A9AA" transform="matrix(1.00, 0.00, -0.00, -1.00, 233.4, 187.0)">e</text><text xml:space="preserve" font-family="InputSans-Regular" font-size="37.8" fill="#A5A9AA" transform="matrix(1.00, 0.00, -0.00, -1.00, 278.1, 187.0)">n</text><text xml:space="preserve" font-family="InputSans-Regular" font-size="37.8" fill="#A5A9AA" transform="matrix(1.00, 0.00, -0.00, -1.00, 302.1, 187.0)">a</text><text xml:space="preserve" font-family="InputSans-Regular" font-size="37.8" fill="#A5A9AA" transform="matrix(1.00, 0.00, -0.00, -1.00, 327.9, 187.0)">t</text><text xml:space="preserve" font-family="InputSans-Regular" font-size="37.8" fill="#A5A9AA" transform="matrix(1.00, 0.00, -0.00, -1.00, 348.5, 187.0)">u</text><text xml:space="preserve" font-family="InputSans-Regular" font-size="37.8" fill="#A5A9AA" transform="matrix(1.00, 0.00, -0.00, -1.00, 372.6, 187.0)">r</text><text xml:space="preserve" font-family="InputSans-Regular" font-size="37.8" fill="#A5A9AA" transform="matrix(1.00, 0.00, -0.00, -1.00, 393.2, 187.0)">e</text><text xml:space="preserve" font-family="InputSans-Regular" font-size="37.8" fill="#A5A9AA" transform="matrix(1.00, 0.00, -0.00, -1.00, 437.8, 187.0)">o</text><text xml:space="preserve" font-family="InputSans-Regular" font-size="37.8" fill="#A5A9AA" transform="matrix(1.00, 0.00, -0.00, -1.00, 461.9, 187.0)">f</text><text xml:space="preserve" font-family="InputSans-Regular" font-size="37.8" fill="#A5A9AA" transform="matrix(1.00, 0.00, -0.00, -1.00, 503.1, 187.0)">y</text><text xml:space="preserve" font-family="InputSans-Regular" font-size="37.8" fill="#A5A9AA" transform="matrix(1.00, 0.00, -0.00, -1.00, 523.8, 187.0)">o</text><text xml:space="preserve" font-family="InputSans-Regular" font-size="37.8" fill="#A5A9AA" transform="matrix(1.00, 0.00, -0.00, -1.00, 547.8, 187.0)">u</text><text xml:space="preserve" font-family="InputSans-Regular" font-size="37.8" fill="#A5A9AA" transform="matrix(1.00, 0.00, -0.00, -1.00, 571.9, 187.0)">r</text><text xml:space="preserve" font-family="InputSans-Regular" font-size="37.8" fill="#A5A9AA" transform="matrix(1.00, 0.00, -0.00, -1.00, 613.1, 187.0)">w</text><text xml:space="preserve" font-family="InputSans-Regular" font-size="37.8" fill="#A5A9AA" transform="matrix(1.00, 0.00, -0.00, -1.00, 644.0, 187.0)">o</text><text xml:space="preserve" font-family="InputSans-Regular" font-size="37.8" fill="#A5A9AA" transform="matrix(1.00, 0.00, -0.00, -1.00, 668.1, 187.0)">r</text><text xml:space="preserve" font-family="InputSans-Regular" font-size="37.8" fill="#A5A9AA" transform="matrix(1.00, 0.00, -0.00, -1.00, 688.7, 187.0)">k</text><text xml:space="preserve" font-family="InputSans-Regular" font-size="37.8" fill="#A5A9AA" transform="matrix(1.00, 0.00, -0.00, -1.00, 729.9, 187.0)">i</text><text xml:space="preserve" font-family="InputSans-Regular" font-size="37.8" fill="#A5A9AA" transform="matrix(1.00, 0.00, -0.00, -1.00, 747.1, 187.0)">s</text><text xml:space="preserve" font-family="InputSans-Regular" font-size="37.8" fill="#A5A9AA" transform="matrix(1.00, 0.00, -0.00, -1.00, 791.8, 187.0)">p</text><text xml:space="preserve" font-family="InputSans-Regular" font-size="37.8" fill="#A5A9AA" transform="matrix(1.00, 0.00, -0.00, -1.00, 815.8, 187.0)">u</text><text xml:space="preserve" font-family="InputSans-Regular" font-size="37.8" fill="#A5A9AA" transform="matrix(1.00, 0.00, -0.00, -1.00, 839.9, 187.0)">b</text><text xml:space="preserve" font-family="InputSans-Regular" font-size="37.8" fill="#A5A9AA" transform="matrix(1.00, 0.00, -0.00, -1.00, 864.0, 187.0)">l</text><text xml:space="preserve" font-family="InputSans-Regular" font-size="37.8" fill="#A5A9AA" transform="matrix(1.00, 0.00, -0.00, -1.00, 881.1, 187.0)">i</text><text xml:space="preserve" font-family="InputSans-Regular" font-size="37.8" fill="#A5A9AA" transform="matrix(1.00, 0.00, -0.00, -1.00, 898.3, 187.0)">c</text><text xml:space="preserve" font-family="InputSans-Regular" font-size="37.8" fill="#A5A9AA" transform="matrix(1.00, 0.00, -0.00, -1.00, 922.4, 187.0)">-</text><text xml:space="preserve" font-family="InputSans-Regular" font-size="37.8" fill="#A5A9AA" transform="matrix(1.00, 0.00, -0.00, -1.00, 65.0, 133.0)">f</text><text xml:space="preserve" font-family="InputSans-Regular" font-size="37.8" fill="#A5A9AA" transform="matrix(1.00, 0.00, -0.00, -1.00, 85.6, 133.0)">a</text><text xml:space="preserve" font-family="InputSans-Regular" font-size="37.8" fill="#A5A9AA" transform="matrix(1.00, 0.00, -0.00, -1.00, 113.1, 133.0)">c</text><text xml:space="preserve" font-family="InputSans-Regular" font-size="37.8" fill="#A5A9AA" transform="matrix(1.00, 0.00, -0.00, -1.00, 137.2, 133.0)">i</text><text xml:space="preserve" font-family="InputSans-Regular" font-size="37.8" fill="#A5A9AA" transform="matrix(1.00, 0.00, -0.00, -1.00, 154.3, 133.0)">n</text><text xml:space="preserve" font-family="InputSans-Regular" font-size="37.8" fill="#A5A9AA" transform="matrix(1.00, 0.00, -0.00, -1.00, 178.4, 133.0)">g</text><text xml:space="preserve" font-family="InputSans-Regular" font-size="37.8" fill="#A5A9AA" transform="matrix(1.00, 0.00, -0.00, -1.00, 226.5, 133.0)">i</text><text xml:space="preserve" font-family="InputSans-Regular" font-size="37.8" fill="#A5A9AA" transform="matrix(1.00, 0.00, -0.00, -1.00, 243.7, 133.0)">n</text><text xml:space="preserve" font-family="InputSans-Regular" font-size="37.8" fill="#A5A9AA" transform="matrix(1.00, 0.00, -0.00, -1.00, 288.4, 133.0)">c</text><text xml:space="preserve" font-family="InputSans-Regular" font-size="37.8" fill="#A5A9AA" transform="matrix(1.00, 0.00, -0.00, -1.00, 312.4, 133.0)">e</text><text xml:space="preserve" font-family="InputSans-Regular" font-size="37.8" fill="#A5A9AA" transform="matrix(1.00, 0.00, -0.00, -1.00, 336.5, 133.0)">r</text><text xml:space="preserve" font-family="InputSans-Regular" font-size="37.8" fill="#A5A9AA" transform="matrix(1.00, 0.00, -0.00, -1.00, 357.1, 133.0)">t</text><text xml:space="preserve" font-family="InputSans-Regular" font-size="37.8" fill="#A5A9AA" transform="matrix(1.00, 0.00, -0.00, -1.00, 377.7, 133.0)">a</text><text xml:space="preserve" font-family="InputSans-Regular" font-size="37.8" fill="#A5A9AA" transform="matrix(1.00, 0.00, -0.00, -1.00, 405.2, 133.0)">i</text><text xml:space="preserve" font-family="InputSans-Regular" font-size="37.8" fill="#A5A9AA" transform="matrix(1.00, 0.00, -0.00, -1.00, 422.4, 133.0)">n</text><text xml:space="preserve" font-family="InputSans-Regular" font-size="37.8" fill="#A5A9AA" transform="matrix(1.00, 0.00, -0.00, -1.00, 467.1, 133.0)">w</text><text xml:space="preserve" font-family="InputSans-Regular" font-size="37.8" fill="#A5A9AA" transform="matrix(1.00, 0.00, -0.00, -1.00, 498.0, 133.0)">a</text><text xml:space="preserve" font-family="InputSans-Regular" font-size="37.8" fill="#A5A9AA" transform="matrix(1.00, 0.00, -0.00, -1.00, 525.5, 133.0)">y</text><text xml:space="preserve" font-family="InputSans-Regular" font-size="37.8" fill="#A5A9AA" transform="matrix(1.00, 0.00, -0.00, -1.00, 546.1, 133.0)">s</text><text xml:space="preserve" font-family="InputSans-Regular" font-size="37.8" fill="#A5A9AA" transform="matrix(1.00, 0.00, -0.00, -1.00, 570.1, 133.0)">.</text><text xml:space="preserve" font-family="InputSans-Bold" font-weight="bold" font-size="24.0" fill="#838686" transform="matrix(1.00, 0.00, -0.00, -1.00, 36.0, 707.0)">D</text><text xml:space="preserve" font-family="InputSans-Bold" font-weight="bold" font-size="24.0" fill="#838686" transform="matrix(1.00, 0.00, -0.00, -1.00, 56.2, 707.0)">I</text><text xml:space="preserve" font-family="InputSans-Bold" font-weight="bold" font-size="24.0" fill="#838686" transform="matrix(1.00, 0.00, -0.00, -1.00, 74.2, 707.0)">G</text><text xml:space="preserve" font-family="InputSans-Bold" font-weight="bold" font-size="24.0" fill="#838686" transform="matrix(1.00, 0.00, -0.00, -1.00, 94.4, 707.0)">I</text><text xml:space="preserve" font-family="InputSans-Bold" font-weight="bold" font-size="24.0" fill="#838686" transform="matrix(1.00, 0.00, -0.00, -1.00, 112.4, 707.0)">T</text><text xml:space="preserve" font-family="InputSans-Bold" font-weight="bold" font-size="24.0" fill="#838686" transform="matrix(1.00, 0.00, -0.00, -1.00, 129.3, 707.0)">A</text><text xml:space="preserve" font-family="InputSans-Bold" font-weight="bold" font-size="24.0" fill="#838686" transform="matrix(1.00, 0.00, -0.00, -1.00, 147.9, 707.0)">L</text><text xml:space="preserve" font-family="InputSans-Bold" font-weight="bold" font-size="24.0" fill="#838686" transform="matrix(1.00, 0.00, -0.00, -1.00, 163.7, 707.0)"> </text><text xml:space="preserve" font-family="InputSans-Bold" font-weight="bold" font-size="24.0" fill="#838686" transform="matrix(1.00, 0.00, -0.00, -1.00, 178.1, 707.0)">H</text><text xml:space="preserve" font-family="InputSans-Bold" font-weight="bold" font-size="24.0" fill="#838686" transform="matrix(1.00, 0.00, -0.00, -1.00, 198.2, 707.0)">U</text><text xml:space="preserve" font-family="InputSans-Bold" font-weight="bold" font-size="24.0" fill="#838686" transform="matrix(1.00, 0.00, -0.00, -1.00, 218.4, 707.0)">M</text><text xml:space="preserve" font-family="InputSans-Bold" font-weight="bold" font-size="24.0" fill="#838686" transform="matrix(1.00, 0.00, -0.00, -1.00, 240.8, 707.0)">A</text><text xml:space="preserve" font-family="InputSans-Bold" font-weight="bold" font-size="24.0" fill="#838686" transform="matrix(1.00, 0.00, -0.00, -1.00, 259.4, 707.0)">N</text><text xml:space="preserve" font-family="InputSans-Bold" font-weight="bold" font-size="24.0" fill="#838686" transform="matrix(1.00, 0.00, -0.00, -1.00, 279.6, 707.0)">I</text><text xml:space="preserve" font-family="InputSans-Bold" font-weight="bold" font-size="24.0" fill="#838686" transform="matrix(1.00, 0.00, -0.00, -1.00, 297.6, 707.0)">T</text><text xml:space="preserve" font-family="InputSans-Bold" font-weight="bold" font-size="24.0" fill="#838686" transform="matrix(1.00, 0.00, -0.00, -1.00, 315.6, 707.0)">I</text><text xml:space="preserve" font-family="InputSans-Bold" font-weight="bold" font-size="24.0" fill="#838686" transform="matrix(1.00, 0.00, -0.00, -1.00, 333.6, 707.0)">E</text><text xml:space="preserve" font-family="InputSans-Bold" font-weight="bold" font-size="24.0" fill="#838686" transform="matrix(1.00, 0.00, -0.00, -1.00, 351.6, 707.0)">S</text><text xml:space="preserve" font-family="InputSans-Bold" font-weight="bold" font-size="24.0" fill="#838686" transform="matrix(1.00, 0.00, -0.00, -1.00, 371.8, 707.0)"> </text><text xml:space="preserve" font-family="InputSans-Bold" font-weight="bold" font-size="24.0" fill="#838686" transform="matrix(1.00, 0.00, -0.00, -1.00, 386.1, 707.0)">/</text><text xml:space="preserve" font-family="InputSans-Bold" font-weight="bold" font-size="24.0" fill="#838686" transform="matrix(1.00, 0.00, -0.00, -1.00, 402.6, 707.0)"> </text><text xml:space="preserve" font-family="InputSans-Bold" font-weight="bold" font-size="24.0" fill="#838686" transform="matrix(1.00, 0.00, -0.00, -1.00, 416.9, 707.0)">D</text><text xml:space="preserve" font-family="InputSans-Bold" font-weight="bold" font-size="24.0" fill="#838686" transform="matrix(1.00, 0.00, -0.00, -1.00, 437.1, 707.0)">I</text><text xml:space="preserve" font-family="InputSans-Bold" font-weight="bold" font-size="24.0" fill="#838686" transform="matrix(1.00, 0.00, -0.00, -1.00, 455.1, 707.0)">G</text><text xml:space="preserve" font-family="InputSans-Bold" font-weight="bold" font-size="24.0" fill="#838686" transform="matrix(1.00, 0.00, -0.00, -1.00, 475.2, 707.0)">I</text><text xml:space="preserve" font-family="InputSans-Bold" font-weight="bold" font-size="24.0" fill="#838686" transform="matrix(1.00, 0.00, -0.00, -1.00, 493.2, 707.0)">T</text><text xml:space="preserve" font-family="InputSans-Bold" font-weight="bold" font-size="24.0" fill="#838686" transform="matrix(1.00, 0.00, -0.00, -1.00, 510.2, 707.0)">A</text><text xml:space="preserve" font-family="InputSans-Bold" font-weight="bold" font-size="24.0" fill="#838686" transform="matrix(1.00, 0.00, -0.00, -1.00, 528.8, 707.0)">L</text><text xml:space="preserve" font-family="InputSans-Bold" font-weight="bold" font-size="24.0" fill="#838686" transform="matrix(1.00, 0.00, -0.00, -1.00, 544.6, 707.0)"> </text><text xml:space="preserve" font-family="InputSans-Bold" font-weight="bold" font-size="24.0" fill="#838686" transform="matrix(1.00, 0.00, -0.00, -1.00, 558.9, 707.0)">P</text><text xml:space="preserve" font-family="InputSans-Bold" font-weight="bold" font-size="24.0" fill="#838686" transform="matrix(1.00, 0.00, -0.00, -1.00, 576.9, 707.0)">R</text><text xml:space="preserve" font-family="InputSans-Bold" font-weight="bold" font-size="24.0" fill="#838686" transform="matrix(1.00, 0.00, -0.00, -1.00, 597.1, 707.0)">O</text><text xml:space="preserve" font-family="InputSans-Bold" font-weight="bold" font-size="24.0" fill="#838686" transform="matrix(1.00, 0.00, -0.00, -1.00, 617.3, 707.0)">J</text><text xml:space="preserve" font-family="InputSans-Bold" font-weight="bold" font-size="24.0" fill="#838686" transform="matrix(1.00, 0.00, -0.00, -1.00, 635.3, 707.0)">E</text><text xml:space="preserve" font-family="InputSans-Bold" font-weight="bold" font-size="24.0" fill="#838686" transform="matrix(1.00, 0.00, -0.00, -1.00, 653.3, 707.0)">C</text><text xml:space="preserve" font-family="InputSans-Bold" font-weight="bold" font-size="24.0" fill="#838686" transform="matrix(1.00, 0.00, -0.00, -1.00, 673.5, 707.0)">T</text><text xml:space="preserve" font-family="InputSans-Bold" font-weight="bold" font-size="24.0" fill="#838686" transform="matrix(1.00, 0.00, -0.00, -1.00, 691.5, 707.0)">S</text></g></svg>