<?xml version="1.0" encoding="UTF-8" standalone="no"?><svg xmlns="http://www.w3.org/2000/svg" xmlns:xlink="http://www.w3.org/1999/xlink" clip-rule="evenodd" stroke-miterlimit="4.00" viewBox="0 0 1024 768"><desc>SVG generated by Keynote</desc><defs></defs><g transform="matrix(1.00, 0.00, -0.00, -1.00, 0.0, 768.0)"><path d="M 0.0 768.0 L 1024.0 768.0 L 1024.0 0.0 L 0.0 0.0 Z M 0.0 768.0 " fill="#212121"></path><text xml:space="preserve" font-family="DINCondensed-Bold" font-weight="bold" font-size="142.8" fill="#34A4DA" transform="matrix(1.00, 0.00, -0.00, -1.00, 36.0, 344.0)">W</text><text xml:space="preserve" font-family="DINCondensed-Bold" font-weight="bold" font-size="142.8" fill="#34A4DA" transform="matrix(1.00, 0.00, -0.00, -1.00, 120.7, 344.0)">H</text><text xml:space="preserve" font-family="DINCondensed-Bold" font-weight="bold" font-size="142.8" fill="#34A4DA" transform="matrix(1.00, 0.00, -0.00, -1.00, 181.5, 344.0)">A</text><text xml:space="preserve" font-family="DINCondensed-Bold" font-weight="bold" font-size="142.8" fill="#34A4DA" transform="matrix(1.00, 0.00, -0.00, -1.00, 231.8, 344.0)">T</text><text xml:space="preserve" font-family="DINCondensed-Bold" font-weight="bold" font-size="142.8" fill="#34A4DA" transform="matrix(1.00, 0.00, -0.00, -1.00, 279.2, 344.0)"> </text><text xml:space="preserve" font-family="DINCondensed-Bold" font-weight="bold" font-size="142.8" fill="#34A4DA" transform="matrix(1.00, 0.00, -0.00, -1.00, 305.7, 344.0)">D</text><text xml:space="preserve" font-family="DINCondensed-Bold" font-weight="bold" font-size="142.8" fill="#34A4DA" transform="matrix(1.00, 0.00, -0.00, -1.00, 366.6, 344.0)">O</text><text xml:space="preserve" font-family="DINCondensed-Bold" font-weight="bold" font-size="142.8" fill="#34A4DA" transform="matrix(1.00, 0.00, -0.00, -1.00, 427.4, 344.0)">E</text><text xml:space="preserve" font-family="DINCondensed-Bold" font-weight="bold" font-size="142.8" fill="#34A4DA" transform="matrix(1.00, 0.00, -0.00, -1.00, 480.3, 344.0)">S</text><text xml:space="preserve" font-family="DINCondensed-Bold" font-weight="bold" font-size="142.8" fill="#34A4DA" transform="matrix(1.00, 0.00, -0.00, -1.00, 538.2, 344.0)"> </text><text xml:space="preserve" font-family="DINCondensed-Bold" font-weight="bold" font-size="142.8" fill="#34A4DA" transform="matrix(1.00, 0.00, -0.00, -1.00, 564.8, 344.0)">A</text><text xml:space="preserve" font-family="DINCondensed-Bold" font-weight="bold" font-size="142.8" fill="#34A4DA" transform="matrix(1.00, 0.00, -0.00, -1.00, 622.9, 344.0)"> </text><text xml:space="preserve" font-family="DINCondensed-Bold" font-weight="bold" font-size="142.8" fill="#34A4DA" transform="matrix(1.00, 0.00, -0.00, -1.00, 649.5, 344.0)">D</text><text xml:space="preserve" font-family="DINCondensed-Bold" font-weight="bold" font-size="142.8" fill="#34A4DA" transform="matrix(1.00, 0.00, -0.00, -1.00, 710.3, 344.0)">I</text><text xml:space="preserve" font-family="DINCondensed-Bold" font-weight="bold" font-size="142.8" fill="#34A4DA" transform="matrix(1.00, 0.00, -0.00, -1.00, 739.4, 344.0)">G</text><text xml:space="preserve" font-family="DINCondensed-Bold" font-weight="bold" font-size="142.8" fill="#34A4DA" transform="matrix(1.00, 0.00, -0.00, -1.00, 800.3, 344.0)">I</text><text xml:space="preserve" font-family="DINCondensed-Bold" font-weight="bold" font-size="142.8" fill="#34A4DA" transform="matrix(1.00, 0.00, -0.00, -1.00, 829.4, 344.0)">T</text><text xml:space="preserve" font-family="DINCondensed-Bold" font-weight="bold" font-size="142.8" fill="#34A4DA" transform="matrix(1.00, 0.00, -0.00, -1.00, 869.0, 344.0)">A</text><text xml:space="preserve" font-family="DINCondensed-Bold" font-weight="bold" font-size="142.8" fill="#34A4DA" transform="matrix(1.00, 0.00, -0.00, -1.00, 927.1, 344.0)">L</text><text xml:space="preserve" font-family="DINCondensed-Bold" font-weight="bold" font-size="142.8" fill="#34A4DA" transform="matrix(1.00, 0.00, -0.00, -1.00, 979.9, 344.0)"> </text><text xml:space="preserve" font-family="DINCondensed-Bold" font-weight="bold" font-size="142.8" fill="#34A4DA" transform="matrix(1.00, 0.00, -0.00, -1.00, 36.0, 200.0)">P</text><text xml:space="preserve" font-family="DINCondensed-Bold" font-weight="bold" font-size="142.8" fill="#34A4DA" transform="matrix(1.00, 0.00, -0.00, -1.00, 94.1, 200.0)">R</text><text xml:space="preserve" font-family="DINCondensed-Bold" font-weight="bold" font-size="142.8" fill="#34A4DA" transform="matrix(1.00, 0.00, -0.00, -1.00, 155.0, 200.0)">O</text><text xml:space="preserve" font-family="DINCondensed-Bold" font-weight="bold" font-size="142.8" fill="#34A4DA" transform="matrix(1.00, 0.00, -0.00, -1.00, 215.8, 200.0)">J</text><text xml:space="preserve" font-family="DINCondensed-Bold" font-weight="bold" font-size="142.8" fill="#34A4DA" transform="matrix(1.00, 0.00, -0.00, -1.00, 263.3, 200.0)">E</text><text xml:space="preserve" font-family="DINCondensed-Bold" font-weight="bold" font-size="142.8" fill="#34A4DA" transform="matrix(1.00, 0.00, -0.00, -1.00, 316.2, 200.0)">C</text><text xml:space="preserve" font-family="DINCondensed-Bold" font-weight="bold" font-size="142.8" fill="#34A4DA" transform="matrix(1.00, 0.00, -0.00, -1.00, 374.3, 200.0)">T</text><text xml:space="preserve" font-family="DINCondensed-Bold" font-weight="bold" font-size="142.8" fill="#34A4DA" transform="matrix(1.00, 0.00, -0.00, -1.00, 421.7, 200.0)"> </text><text xml:space="preserve" font-family="DINCondensed-Bold" font-weight="bold" font-size="142.8" fill="#34A4DA" transform="matrix(1.00, 0.00, -0.00, -1.00, 448.3, 200.0)">D</text><text xml:space="preserve" font-family="DINCondensed-Bold" font-weight="bold" font-size="142.8" fill="#34A4DA" transform="matrix(1.00, 0.00, -0.00, -1.00, 509.1, 200.0)">O</text><text xml:space="preserve" font-family="DINCondensed-Bold" font-weight="bold" font-size="142.8" fill="#34A4DA" transform="matrix(1.00, 0.00, -0.00, -1.00, 569.9, 200.0)">?</text></g></svg>