<?xml version="1.0" encoding="UTF-8" standalone="no"?><svg xmlns="http://www.w3.org/2000/svg" xmlns:xlink="http://www.w3.org/1999/xlink" clip-rule="evenodd" stroke-miterlimit="4.00" viewBox="0 0 1024 768"><desc>SVG generated by Keynote</desc><defs></defs><g transform="matrix(1.00, 0.00, -0.00, -1.00, 0.0, 768.0)"><path d="M 0.0 768.0 L 1024.0 768.0 L 1024.0 0.0 L 0.0 0.0 Z M 0.0 768.0 " fill="#212121"></path><text xml:space="preserve" font-family="InputSans-Regular" font-size="31.0" fill="#A6AAA9" transform="matrix(1.00, 0.00, -0.00, -1.00, 36.0, 718.0)">T</text><text xml:space="preserve" font-family="InputSans-Regular" font-size="31.0" fill="#A6AAA9" transform="matrix(1.00, 0.00, -0.00, -1.00, 55.7, 718.0)">H</text><text xml:space="preserve" font-family="InputSans-Regular" font-size="31.0" fill="#A6AAA9" transform="matrix(1.00, 0.00, -0.00, -1.00, 78.3, 718.0)">I</text><text xml:space="preserve" font-family="InputSans-Regular" font-size="31.0" fill="#A6AAA9" transform="matrix(1.00, 0.00, -0.00, -1.00, 98.0, 718.0)">S</text><text xml:space="preserve" font-family="InputSans-Regular" font-size="31.0" fill="#A6AAA9" transform="matrix(1.00, 0.00, -0.00, -1.00, 120.6, 718.0)"> </text><text xml:space="preserve" font-family="InputSans-Regular" font-size="31.0" fill="#A6AAA9" transform="matrix(1.00, 0.00, -0.00, -1.00, 137.5, 718.0)">I</text><text xml:space="preserve" font-family="InputSans-Regular" font-size="31.0" fill="#A6AAA9" transform="matrix(1.00, 0.00, -0.00, -1.00, 157.3, 718.0)">S</text><text xml:space="preserve" font-family="InputSans-Regular" font-size="31.0" fill="#A6AAA9" transform="matrix(1.00, 0.00, -0.00, -1.00, 179.8, 718.0)"> </text><text xml:space="preserve" font-family="InputSans-Regular" font-size="31.0" fill="#A6AAA9" transform="matrix(1.00, 0.00, -0.00, -1.00, 196.7, 718.0)">A</text><text xml:space="preserve" font-family="InputSans-Regular" font-size="31.0" fill="#A6AAA9" transform="matrix(1.00, 0.00, -0.00, -1.00, 219.3, 718.0)">N</text><text xml:space="preserve" font-family="InputSans-Regular" font-size="31.0" fill="#A6AAA9" transform="matrix(1.00, 0.00, -0.00, -1.00, 241.9, 718.0)">O</text><text xml:space="preserve" font-family="InputSans-Regular" font-size="31.0" fill="#A6AAA9" transform="matrix(1.00, 0.00, -0.00, -1.00, 264.4, 718.0)">T</text><text xml:space="preserve" font-family="InputSans-Regular" font-size="31.0" fill="#A6AAA9" transform="matrix(1.00, 0.00, -0.00, -1.00, 284.1, 718.0)">H</text><text xml:space="preserve" font-family="InputSans-Regular" font-size="31.0" fill="#A6AAA9" transform="matrix(1.00, 0.00, -0.00, -1.00, 306.7, 718.0)">E</text><text xml:space="preserve" font-family="InputSans-Regular" font-size="31.0" fill="#A6AAA9" transform="matrix(1.00, 0.00, -0.00, -1.00, 326.4, 718.0)">R</text><text xml:space="preserve" font-family="InputSans-Regular" font-size="31.0" fill="#A6AAA9" transform="matrix(1.00, 0.00, -0.00, -1.00, 349.0, 718.0)"> </text><text xml:space="preserve" font-family="InputSans-Regular" font-size="31.0" fill="#A6AAA9" transform="matrix(1.00, 0.00, -0.00, -1.00, 365.9, 718.0)">A</text><text xml:space="preserve" font-family="InputSans-Regular" font-size="31.0" fill="#A6AAA9" transform="matrix(1.00, 0.00, -0.00, -1.00, 388.5, 718.0)">X</text><text xml:space="preserve" font-family="InputSans-Regular" font-size="31.0" fill="#A6AAA9" transform="matrix(1.00, 0.00, -0.00, -1.00, 411.0, 718.0)">E</text><text xml:space="preserve" font-family="InputSans-Regular" font-size="31.0" fill="#A6AAA9" transform="matrix(1.00, 0.00, -0.00, -1.00, 430.8, 718.0)"> </text><text xml:space="preserve" font-family="InputSans-Regular" font-size="31.0" fill="#A6AAA9" transform="matrix(1.00, 0.00, -0.00, -1.00, 447.7, 718.0)">I</text><text xml:space="preserve" font-family="InputSans-Regular" font-size="31.0" fill="#A6AAA9" transform="matrix(1.00, 0.00, -0.00, -1.00, 467.4, 718.0)"> </text><text xml:space="preserve" font-family="InputSans-Regular" font-size="31.0" fill="#A6AAA9" transform="matrix(1.00, 0.00, -0.00, -1.00, 484.4, 718.0)">H</text><text xml:space="preserve" font-family="InputSans-Regular" font-size="31.0" fill="#A6AAA9" transform="matrix(1.00, 0.00, -0.00, -1.00, 506.9, 718.0)">A</text><text xml:space="preserve" font-family="InputSans-Regular" font-size="31.0" fill="#A6AAA9" transform="matrix(1.00, 0.00, -0.00, -1.00, 528.1, 718.0)">V</text><text xml:space="preserve" font-family="InputSans-Regular" font-size="31.0" fill="#A6AAA9" transform="matrix(1.00, 0.00, -0.00, -1.00, 550.6, 718.0)">E</text><text xml:space="preserve" font-family="InputSans-Regular" font-size="31.0" fill="#A6AAA9" transform="matrix(1.00, 0.00, -0.00, -1.00, 570.4, 718.0)"> </text><text xml:space="preserve" font-family="InputSans-Regular" font-size="31.0" fill="#A6AAA9" transform="matrix(1.00, 0.00, -0.00, -1.00, 587.3, 718.0)">T</text><text xml:space="preserve" font-family="InputSans-Regular" font-size="31.0" fill="#A6AAA9" transform="matrix(1.00, 0.00, -0.00, -1.00, 607.0, 718.0)">O</text><text xml:space="preserve" font-family="InputSans-Regular" font-size="31.0" fill="#A6AAA9" transform="matrix(1.00, 0.00, -0.00, -1.00, 629.6, 718.0)"> </text><text xml:space="preserve" font-family="InputSans-Regular" font-size="31.0" fill="#A6AAA9" transform="matrix(1.00, 0.00, -0.00, -1.00, 646.5, 718.0)">G</text><text xml:space="preserve" font-family="InputSans-Regular" font-size="31.0" fill="#A6AAA9" transform="matrix(1.00, 0.00, -0.00, -1.00, 669.0, 718.0)">R</text><text xml:space="preserve" font-family="InputSans-Regular" font-size="31.0" fill="#A6AAA9" transform="matrix(1.00, 0.00, -0.00, -1.00, 691.6, 718.0)">I</text><text xml:space="preserve" font-family="InputSans-Regular" font-size="31.0" fill="#A6AAA9" transform="matrix(1.00, 0.00, -0.00, -1.00, 711.3, 718.0)">N</text><text xml:space="preserve" font-family="InputSans-Regular" font-size="31.0" fill="#A6AAA9" transform="matrix(1.00, 0.00, -0.00, -1.00, 733.9, 718.0)">D</text><text xml:space="preserve" font-family="InputSans-Regular" font-size="31.0" fill="#A6AAA9" transform="matrix(1.00, 0.00, -0.00, -1.00, 756.5, 718.0)">,</text><text xml:space="preserve" font-family="InputSans-Regular" font-size="31.0" fill="#A6AAA9" transform="matrix(1.00, 0.00, -0.00, -1.00, 776.2, 718.0)"> </text><text xml:space="preserve" font-family="InputSans-Regular" font-size="31.0" fill="#A6AAA9" transform="matrix(1.00, 0.00, -0.00, -1.00, 793.1, 718.0)">S</text><text xml:space="preserve" font-family="InputSans-Regular" font-size="31.0" fill="#A6AAA9" transform="matrix(1.00, 0.00, -0.00, -1.00, 815.7, 718.0)">O</text><text xml:space="preserve" font-family="InputSans-Regular" font-size="31.0" fill="#A6AAA9" transform="matrix(1.00, 0.00, -0.00, -1.00, 838.2, 718.0)"> </text><text xml:space="preserve" font-family="InputSans-Regular" font-size="31.0" fill="#A6AAA9" transform="matrix(1.00, 0.00, -0.00, -1.00, 855.2, 718.0)">I</text><text xml:space="preserve" font-family="InputSans-Regular" font-size="31.0" fill="#A6AAA9" transform="matrix(1.00, 0.00, -0.00, -1.00, 874.9, 718.0)">T</text><text xml:space="preserve" font-family="InputSans-Regular" font-size="31.0" fill="#A6AAA9" transform="matrix(1.00, 0.00, -0.00, -1.00, 894.6, 718.0)"> </text><text xml:space="preserve" font-family="InputSans-Regular" font-size="31.0" fill="#A6AAA9" transform="matrix(1.00, 0.00, -0.00, -1.00, 36.0, 683.0)">G</text><text xml:space="preserve" font-family="InputSans-Regular" font-size="31.0" fill="#A6AAA9" transform="matrix(1.00, 0.00, -0.00, -1.00, 58.6, 683.0)">E</text><text xml:space="preserve" font-family="InputSans-Regular" font-size="31.0" fill="#A6AAA9" transform="matrix(1.00, 0.00, -0.00, -1.00, 78.3, 683.0)">T</text><text xml:space="preserve" font-family="InputSans-Regular" font-size="31.0" fill="#A6AAA9" transform="matrix(1.00, 0.00, -0.00, -1.00, 98.0, 683.0)">S</text><text xml:space="preserve" font-family="InputSans-Regular" font-size="31.0" fill="#A6AAA9" transform="matrix(1.00, 0.00, -0.00, -1.00, 120.6, 683.0)"> </text><text xml:space="preserve" font-family="InputSans-Regular" font-size="31.0" fill="#A6AAA9" transform="matrix(1.00, 0.00, -0.00, -1.00, 137.5, 683.0)">B</text><text xml:space="preserve" font-family="InputSans-Regular" font-size="31.0" fill="#A6AAA9" transform="matrix(1.00, 0.00, -0.00, -1.00, 160.1, 683.0)">I</text><text xml:space="preserve" font-family="InputSans-Regular" font-size="31.0" fill="#A6AAA9" transform="matrix(1.00, 0.00, -0.00, -1.00, 179.8, 683.0)">G</text><text xml:space="preserve" font-family="InputSans-Regular" font-size="31.0" fill="#A6AAA9" transform="matrix(1.00, 0.00, -0.00, -1.00, 202.3, 683.0)"> </text><text xml:space="preserve" font-family="InputSans-Regular" font-size="31.0" fill="#A6AAA9" transform="matrix(1.00, 0.00, -0.00, -1.00, 219.3, 683.0)">L</text><text xml:space="preserve" font-family="InputSans-Regular" font-size="31.0" fill="#A6AAA9" transform="matrix(1.00, 0.00, -0.00, -1.00, 236.2, 683.0)">E</text><text xml:space="preserve" font-family="InputSans-Regular" font-size="31.0" fill="#A6AAA9" transform="matrix(1.00, 0.00, -0.00, -1.00, 255.9, 683.0)">T</text><text xml:space="preserve" font-family="InputSans-Regular" font-size="31.0" fill="#A6AAA9" transform="matrix(1.00, 0.00, -0.00, -1.00, 275.7, 683.0)">T</text><text xml:space="preserve" font-family="InputSans-Regular" font-size="31.0" fill="#A6AAA9" transform="matrix(1.00, 0.00, -0.00, -1.00, 295.4, 683.0)">E</text><text xml:space="preserve" font-family="InputSans-Regular" font-size="31.0" fill="#A6AAA9" transform="matrix(1.00, 0.00, -0.00, -1.00, 315.1, 683.0)">R</text><text xml:space="preserve" font-family="InputSans-Regular" font-size="31.0" fill="#A6AAA9" transform="matrix(1.00, 0.00, -0.00, -1.00, 337.7, 683.0)">S</text><text xml:space="preserve" font-family="InputSans-Regular" font-size="31.0" fill="#A6AAA9" transform="matrix(1.00, 0.00, -0.00, -1.00, 360.2, 683.0)"> </text><text xml:space="preserve" font-family="InputSans-Regular" font-size="31.0" fill="#A6AAA9" transform="matrix(1.00, 0.00, -0.00, -1.00, 377.2, 683.0)">T</text><text xml:space="preserve" font-family="InputSans-Regular" font-size="31.0" fill="#A6AAA9" transform="matrix(1.00, 0.00, -0.00, -1.00, 396.9, 683.0)">O</text><text xml:space="preserve" font-family="InputSans-Regular" font-size="31.0" fill="#A6AAA9" transform="matrix(1.00, 0.00, -0.00, -1.00, 419.4, 683.0)">O</text><text xml:space="preserve" font-family="InputSans-Regular" font-size="31.0" fill="#A6AAA9" transform="matrix(1.00, 0.00, -0.00, -1.00, 442.0, 683.0)">.</text></g></svg>