<?xml version="1.0" encoding="UTF-8" standalone="no"?><svg xmlns="http://www.w3.org/2000/svg" xmlns:xlink="http://www.w3.org/1999/xlink" clip-rule="evenodd" stroke-miterlimit="4.00" viewBox="0 0 860 63"><desc>SVG generated by Keynote</desc><defs></defs><g transform="matrix(1.00, 0.00, -0.00, -1.00, 0.0, 63.0)"><text xml:space="preserve" font-family="InputSans-Regular" font-size="31.0" fill="#A6AAA9" transform="matrix(1.00, 0.00, -0.00, -1.00, 0.0, 38.0)">T</text><text xml:space="preserve" font-family="InputSans-Regular" font-size="31.0" fill="#A6AAA9" transform="matrix(1.00, 0.00, -0.00, -1.00, 19.7, 38.0)">H</text><text xml:space="preserve" font-family="InputSans-Regular" font-size="31.0" fill="#A6AAA9" transform="matrix(1.00, 0.00, -0.00, -1.00, 42.3, 38.0)">I</text><text xml:space="preserve" font-family="InputSans-Regular" font-size="31.0" fill="#A6AAA9" transform="matrix(1.00, 0.00, -0.00, -1.00, 62.0, 38.0)">S</text><text xml:space="preserve" font-family="InputSans-Regular" font-size="31.0" fill="#A6AAA9" transform="matrix(1.00, 0.00, -0.00, -1.00, 84.6, 38.0)"> </text><text xml:space="preserve" font-family="InputSans-Regular" font-size="31.0" fill="#A6AAA9" transform="matrix(1.00, 0.00, -0.00, -1.00, 101.5, 38.0)">I</text><text xml:space="preserve" font-family="InputSans-Regular" font-size="31.0" fill="#A6AAA9" transform="matrix(1.00, 0.00, -0.00, -1.00, 121.3, 38.0)">S</text><text xml:space="preserve" font-family="InputSans-Regular" font-size="31.0" fill="#A6AAA9" transform="matrix(1.00, 0.00, -0.00, -1.00, 143.8, 38.0)"> </text><text xml:space="preserve" font-family="InputSans-Regular" font-size="31.0" fill="#A6AAA9" transform="matrix(1.00, 0.00, -0.00, -1.00, 160.7, 38.0)">A</text><text xml:space="preserve" font-family="InputSans-Regular" font-size="31.0" fill="#A6AAA9" transform="matrix(1.00, 0.00, -0.00, -1.00, 183.3, 38.0)">N</text><text xml:space="preserve" font-family="InputSans-Regular" font-size="31.0" fill="#A6AAA9" transform="matrix(1.00, 0.00, -0.00, -1.00, 205.9, 38.0)">O</text><text xml:space="preserve" font-family="InputSans-Regular" font-size="31.0" fill="#A6AAA9" transform="matrix(1.00, 0.00, -0.00, -1.00, 228.4, 38.0)">T</text><text xml:space="preserve" font-family="InputSans-Regular" font-size="31.0" fill="#A6AAA9" transform="matrix(1.00, 0.00, -0.00, -1.00, 248.1, 38.0)">H</text><text xml:space="preserve" font-family="InputSans-Regular" font-size="31.0" fill="#A6AAA9" transform="matrix(1.00, 0.00, -0.00, -1.00, 270.7, 38.0)">E</text><text xml:space="preserve" font-family="InputSans-Regular" font-size="31.0" fill="#A6AAA9" transform="matrix(1.00, 0.00, -0.00, -1.00, 290.4, 38.0)">R</text><text xml:space="preserve" font-family="InputSans-Regular" font-size="31.0" fill="#A6AAA9" transform="matrix(1.00, 0.00, -0.00, -1.00, 313.0, 38.0)"> </text><text xml:space="preserve" font-family="InputSans-Regular" font-size="31.0" fill="#A6AAA9" transform="matrix(1.00, 0.00, -0.00, -1.00, 329.9, 38.0)">A</text><text xml:space="preserve" font-family="InputSans-Regular" font-size="31.0" fill="#A6AAA9" transform="matrix(1.00, 0.00, -0.00, -1.00, 352.5, 38.0)">X</text><text xml:space="preserve" font-family="InputSans-Regular" font-size="31.0" fill="#A6AAA9" transform="matrix(1.00, 0.00, -0.00, -1.00, 375.0, 38.0)">E</text><text xml:space="preserve" font-family="InputSans-Regular" font-size="31.0" fill="#A6AAA9" transform="matrix(1.00, 0.00, -0.00, -1.00, 394.8, 38.0)"> </text><text xml:space="preserve" font-family="InputSans-Regular" font-size="31.0" fill="#A6AAA9" transform="matrix(1.00, 0.00, -0.00, -1.00, 411.7, 38.0)">I</text><text xml:space="preserve" font-family="InputSans-Regular" font-size="31.0" fill="#A6AAA9" transform="matrix(1.00, 0.00, -0.00, -1.00, 431.4, 38.0)"> </text><text xml:space="preserve" font-family="InputSans-Regular" font-size="31.0" fill="#A6AAA9" transform="matrix(1.00, 0.00, -0.00, -1.00, 448.4, 38.0)">H</text><text xml:space="preserve" font-family="InputSans-Regular" font-size="31.0" fill="#A6AAA9" transform="matrix(1.00, 0.00, -0.00, -1.00, 470.9, 38.0)">A</text><text xml:space="preserve" font-family="InputSans-Regular" font-size="31.0" fill="#A6AAA9" transform="matrix(1.00, 0.00, -0.00, -1.00, 492.1, 38.0)">V</text><text xml:space="preserve" font-family="InputSans-Regular" font-size="31.0" fill="#A6AAA9" transform="matrix(1.00, 0.00, -0.00, -1.00, 514.6, 38.0)">E</text><text xml:space="preserve" font-family="InputSans-Regular" font-size="31.0" fill="#A6AAA9" transform="matrix(1.00, 0.00, -0.00, -1.00, 534.4, 38.0)"> </text><text xml:space="preserve" font-family="InputSans-Regular" font-size="31.0" fill="#A6AAA9" transform="matrix(1.00, 0.00, -0.00, -1.00, 551.3, 38.0)">T</text><text xml:space="preserve" font-family="InputSans-Regular" font-size="31.0" fill="#A6AAA9" transform="matrix(1.00, 0.00, -0.00, -1.00, 571.0, 38.0)">O</text><text xml:space="preserve" font-family="InputSans-Regular" font-size="31.0" fill="#A6AAA9" transform="matrix(1.00, 0.00, -0.00, -1.00, 593.6, 38.0)"> </text><text xml:space="preserve" font-family="InputSans-Regular" font-size="31.0" fill="#A6AAA9" transform="matrix(1.00, 0.00, -0.00, -1.00, 610.5, 38.0)">G</text><text xml:space="preserve" font-family="InputSans-Regular" font-size="31.0" fill="#A6AAA9" transform="matrix(1.00, 0.00, -0.00, -1.00, 633.0, 38.0)">R</text><text xml:space="preserve" font-family="InputSans-Regular" font-size="31.0" fill="#A6AAA9" transform="matrix(1.00, 0.00, -0.00, -1.00, 655.6, 38.0)">I</text><text xml:space="preserve" font-family="InputSans-Regular" font-size="31.0" fill="#A6AAA9" transform="matrix(1.00, 0.00, -0.00, -1.00, 675.3, 38.0)">N</text><text xml:space="preserve" font-family="InputSans-Regular" font-size="31.0" fill="#A6AAA9" transform="matrix(1.00, 0.00, -0.00, -1.00, 697.9, 38.0)">D</text><text xml:space="preserve" font-family="InputSans-Regular" font-size="31.0" fill="#A6AAA9" transform="matrix(1.00, 0.00, -0.00, -1.00, 720.5, 38.0)">,</text><text xml:space="preserve" font-family="InputSans-Regular" font-size="31.0" fill="#A6AAA9" transform="matrix(1.00, 0.00, -0.00, -1.00, 740.2, 38.0)"> </text><text xml:space="preserve" font-family="InputSans-Regular" font-size="31.0" fill="#A6AAA9" transform="matrix(1.00, 0.00, -0.00, -1.00, 757.1, 38.0)">S</text><text xml:space="preserve" font-family="InputSans-Regular" font-size="31.0" fill="#A6AAA9" transform="matrix(1.00, 0.00, -0.00, -1.00, 779.7, 38.0)">O</text><text xml:space="preserve" font-family="InputSans-Regular" font-size="31.0" fill="#A6AAA9" transform="matrix(1.00, 0.00, -0.00, -1.00, 802.2, 38.0)"> </text><text xml:space="preserve" font-family="InputSans-Regular" font-size="31.0" fill="#A6AAA9" transform="matrix(1.00, 0.00, -0.00, -1.00, 819.2, 38.0)">I</text><text xml:space="preserve" font-family="InputSans-Regular" font-size="31.0" fill="#A6AAA9" transform="matrix(1.00, 0.00, -0.00, -1.00, 838.9, 38.0)">T</text><text xml:space="preserve" font-family="InputSans-Regular" font-size="31.0" fill="#A6AAA9" transform="matrix(1.00, 0.00, -0.00, -1.00, 858.6, 38.0)"> </text><text xml:space="preserve" font-family="InputSans-Regular" font-size="31.0" fill="#A6AAA9" transform="matrix(1.00, 0.00, -0.00, -1.00, 0.0, 3.0)">G</text><text xml:space="preserve" font-family="InputSans-Regular" font-size="31.0" fill="#A6AAA9" transform="matrix(1.00, 0.00, -0.00, -1.00, 22.6, 3.0)">E</text><text xml:space="preserve" font-family="InputSans-Regular" font-size="31.0" fill="#A6AAA9" transform="matrix(1.00, 0.00, -0.00, -1.00, 42.3, 3.0)">T</text><text xml:space="preserve" font-family="InputSans-Regular" font-size="31.0" fill="#A6AAA9" transform="matrix(1.00, 0.00, -0.00, -1.00, 62.0, 3.0)">S</text><text xml:space="preserve" font-family="InputSans-Regular" font-size="31.0" fill="#A6AAA9" transform="matrix(1.00, 0.00, -0.00, -1.00, 84.6, 3.0)"> </text><text xml:space="preserve" font-family="InputSans-Regular" font-size="31.0" fill="#A6AAA9" transform="matrix(1.00, 0.00, -0.00, -1.00, 101.5, 3.0)">B</text><text xml:space="preserve" font-family="InputSans-Regular" font-size="31.0" fill="#A6AAA9" transform="matrix(1.00, 0.00, -0.00, -1.00, 124.1, 3.0)">I</text><text xml:space="preserve" font-family="InputSans-Regular" font-size="31.0" fill="#A6AAA9" transform="matrix(1.00, 0.00, -0.00, -1.00, 143.8, 3.0)">G</text><text xml:space="preserve" font-family="InputSans-Regular" font-size="31.0" fill="#A6AAA9" transform="matrix(1.00, 0.00, -0.00, -1.00, 166.3, 3.0)"> </text><text xml:space="preserve" font-family="InputSans-Regular" font-size="31.0" fill="#A6AAA9" transform="matrix(1.00, 0.00, -0.00, -1.00, 183.3, 3.0)">L</text><text xml:space="preserve" font-family="InputSans-Regular" font-size="31.0" fill="#A6AAA9" transform="matrix(1.00, 0.00, -0.00, -1.00, 200.2, 3.0)">E</text><text xml:space="preserve" font-family="InputSans-Regular" font-size="31.0" fill="#A6AAA9" transform="matrix(1.00, 0.00, -0.00, -1.00, 219.9, 3.0)">T</text><text xml:space="preserve" font-family="InputSans-Regular" font-size="31.0" fill="#A6AAA9" transform="matrix(1.00, 0.00, -0.00, -1.00, 239.7, 3.0)">T</text><text xml:space="preserve" font-family="InputSans-Regular" font-size="31.0" fill="#A6AAA9" transform="matrix(1.00, 0.00, -0.00, -1.00, 259.4, 3.0)">E</text><text xml:space="preserve" font-family="InputSans-Regular" font-size="31.0" fill="#A6AAA9" transform="matrix(1.00, 0.00, -0.00, -1.00, 279.1, 3.0)">R</text><text xml:space="preserve" font-family="InputSans-Regular" font-size="31.0" fill="#A6AAA9" transform="matrix(1.00, 0.00, -0.00, -1.00, 301.7, 3.0)">S</text><text xml:space="preserve" font-family="InputSans-Regular" font-size="31.0" fill="#A6AAA9" transform="matrix(1.00, 0.00, -0.00, -1.00, 324.2, 3.0)"> </text><text xml:space="preserve" font-family="InputSans-Regular" font-size="31.0" fill="#A6AAA9" transform="matrix(1.00, 0.00, -0.00, -1.00, 341.2, 3.0)">T</text><text xml:space="preserve" font-family="InputSans-Regular" font-size="31.0" fill="#A6AAA9" transform="matrix(1.00, 0.00, -0.00, -1.00, 360.9, 3.0)">O</text><text xml:space="preserve" font-family="InputSans-Regular" font-size="31.0" fill="#A6AAA9" transform="matrix(1.00, 0.00, -0.00, -1.00, 383.4, 3.0)">O</text><text xml:space="preserve" font-family="InputSans-Regular" font-size="31.0" fill="#A6AAA9" transform="matrix(1.00, 0.00, -0.00, -1.00, 406.0, 3.0)">.</text></g></svg>